G04 #@! TF.FileFunction,Copper,L2,Bot,Signal*
%FSLAX46Y46*%
G04 Gerber Fmt 4.6, Leading zero omitted, Abs format (unit mm)*
G04 Created by KiCad (PCBNEW 4.0.5+dfsg1-4) date Wed Mar  8 23:13:07 2017*
%MOMM*%
%LPD*%
G01*
G04 APERTURE LIST*
%ADD10C,0.100000*%
%ADD11R,2.032000X1.727200*%
%ADD12O,2.032000X1.727200*%
%ADD13R,1.727200X2.032000*%
%ADD14O,1.727200X2.032000*%
%ADD15C,1.500000*%
G04 APERTURE END LIST*
D10*
D11*
X40640000Y-27940000D03*
D12*
X40640000Y-30480000D03*
X40640000Y-33020000D03*
X40640000Y-35560000D03*
D11*
X40640000Y-55880000D03*
D12*
X40640000Y-53340000D03*
X40640000Y-50800000D03*
X40640000Y-48260000D03*
D13*
X46990000Y-55880000D03*
D14*
X49530000Y-55880000D03*
X52070000Y-55880000D03*
X54610000Y-55880000D03*
X57150000Y-55880000D03*
X59690000Y-55880000D03*
X62230000Y-55880000D03*
X64770000Y-55880000D03*
X67310000Y-55880000D03*
X69850000Y-55880000D03*
D13*
X46990000Y-27940000D03*
D14*
X49530000Y-27940000D03*
X52070000Y-27940000D03*
X54610000Y-27940000D03*
X57150000Y-27940000D03*
X59690000Y-27940000D03*
X62230000Y-27940000D03*
X64770000Y-27940000D03*
X67310000Y-27940000D03*
X69850000Y-27940000D03*
D15*
X46990000Y-31750000D03*
X49530000Y-31750000D03*
X52070000Y-31750000D03*
X54610000Y-31750000D03*
X57150000Y-31750000D03*
X59690000Y-31750000D03*
X62230000Y-31750000D03*
X64770000Y-31750000D03*
X67310000Y-31750000D03*
X69850000Y-34290000D03*
X67310000Y-34290000D03*
X69850000Y-31750000D03*
X64770000Y-34290000D03*
X62230000Y-34290000D03*
X59690000Y-34290000D03*
X57150000Y-34290000D03*
X54610000Y-34290000D03*
X52070000Y-34290000D03*
X49530000Y-34290000D03*
X46990000Y-34290000D03*
X46990000Y-36830000D03*
X44450000Y-31750000D03*
X44450000Y-34290000D03*
X44450000Y-36830000D03*
X49530000Y-36830000D03*
X52070000Y-36830000D03*
X54610000Y-36830000D03*
X57150000Y-36830000D03*
X59690000Y-36830000D03*
X62230000Y-36830000D03*
X64770000Y-36830000D03*
X67310000Y-36830000D03*
X69850000Y-36830000D03*
X69850000Y-39370000D03*
X67310000Y-39370000D03*
X64770000Y-39370000D03*
X62230000Y-39370000D03*
X59690000Y-39370000D03*
X57150000Y-39370000D03*
X54610000Y-39370000D03*
X52070000Y-39370000D03*
X49530000Y-39370000D03*
X46990000Y-39370000D03*
X44450000Y-39370000D03*
X49530000Y-41910000D03*
X52070000Y-41910000D03*
X54610000Y-41910000D03*
X57150000Y-41910000D03*
X59690000Y-41910000D03*
X62230000Y-41910000D03*
X64770000Y-41910000D03*
X67310000Y-41910000D03*
X69850000Y-41910000D03*
X69850000Y-44450000D03*
X67310000Y-44450000D03*
X64770000Y-44450000D03*
X62230000Y-44450000D03*
X59690000Y-44450000D03*
X57150000Y-44450000D03*
X54610000Y-44450000D03*
X52070000Y-44450000D03*
X52070000Y-46990000D03*
X54610000Y-46990000D03*
X57150000Y-46990000D03*
X59690000Y-46990000D03*
X62230000Y-46990000D03*
X64770000Y-46990000D03*
X67310000Y-46990000D03*
X69850000Y-46990000D03*
X69850000Y-49530000D03*
X67310000Y-49530000D03*
X64770000Y-49530000D03*
X62230000Y-49530000D03*
X59690000Y-49530000D03*
X57150000Y-49530000D03*
X54610000Y-49530000D03*
X52070000Y-49530000D03*
X54610000Y-52070000D03*
X57150000Y-52070000D03*
X59690000Y-52070000D03*
X62230000Y-52070000D03*
X64770000Y-52070000D03*
X67310000Y-52070000D03*
X69850000Y-52070000D03*
M02*
