G04 #@! TF.FileFunction,Legend,Top*
%FSLAX46Y46*%
G04 Gerber Fmt 4.6, Leading zero omitted, Abs format (unit mm)*
G04 Created by KiCad (PCBNEW 4.0.5+dfsg1-4) date Wed Mar  8 23:13:07 2017*
%MOMM*%
%LPD*%
G01*
G04 APERTURE LIST*
%ADD10C,0.100000*%
%ADD11C,0.300000*%
%ADD12C,0.150000*%
G04 APERTURE END LIST*
D10*
D11*
X48506286Y-49978571D02*
X49006286Y-51478571D01*
X49506286Y-49978571D01*
X50649143Y-51407143D02*
X50506286Y-51478571D01*
X50220572Y-51478571D01*
X50077714Y-51407143D01*
X50006286Y-51335714D01*
X49934857Y-51192857D01*
X49934857Y-50764286D01*
X50006286Y-50621429D01*
X50077714Y-50550000D01*
X50220572Y-50478571D01*
X50506286Y-50478571D01*
X50649143Y-50550000D01*
X51934857Y-51407143D02*
X51792000Y-51478571D01*
X51506286Y-51478571D01*
X51363428Y-51407143D01*
X51292000Y-51335714D01*
X51220571Y-51192857D01*
X51220571Y-50764286D01*
X51292000Y-50621429D01*
X51363428Y-50550000D01*
X51506286Y-50478571D01*
X51792000Y-50478571D01*
X51934857Y-50550000D01*
X43243714Y-49978571D02*
X43743714Y-51478571D01*
X44243714Y-49978571D01*
X44672285Y-51407143D02*
X44815142Y-51478571D01*
X45100857Y-51478571D01*
X45243714Y-51407143D01*
X45315142Y-51264286D01*
X45315142Y-51192857D01*
X45243714Y-51050000D01*
X45100857Y-50978571D01*
X44886571Y-50978571D01*
X44743714Y-50907143D01*
X44672285Y-50764286D01*
X44672285Y-50692857D01*
X44743714Y-50550000D01*
X44886571Y-50478571D01*
X45100857Y-50478571D01*
X45243714Y-50550000D01*
X45886571Y-51407143D02*
X46029428Y-51478571D01*
X46315143Y-51478571D01*
X46458000Y-51407143D01*
X46529428Y-51264286D01*
X46529428Y-51192857D01*
X46458000Y-51050000D01*
X46315143Y-50978571D01*
X46100857Y-50978571D01*
X45958000Y-50907143D01*
X45886571Y-50764286D01*
X45886571Y-50692857D01*
X45958000Y-50550000D01*
X46100857Y-50478571D01*
X46315143Y-50478571D01*
X46458000Y-50550000D01*
D12*
X39370000Y-29210000D02*
X39370000Y-36830000D01*
X41910000Y-29210000D02*
X41910000Y-36830000D01*
X42190000Y-26390000D02*
X42190000Y-27940000D01*
X39370000Y-36830000D02*
X41910000Y-36830000D01*
X41910000Y-29210000D02*
X39370000Y-29210000D01*
X39090000Y-27940000D02*
X39090000Y-26390000D01*
X39090000Y-26390000D02*
X42190000Y-26390000D01*
X41910000Y-54610000D02*
X41910000Y-46990000D01*
X39370000Y-54610000D02*
X39370000Y-46990000D01*
X39090000Y-57430000D02*
X39090000Y-55880000D01*
X41910000Y-46990000D02*
X39370000Y-46990000D01*
X39370000Y-54610000D02*
X41910000Y-54610000D01*
X42190000Y-55880000D02*
X42190000Y-57430000D01*
X42190000Y-57430000D02*
X39090000Y-57430000D01*
X48260000Y-54610000D02*
X71120000Y-54610000D01*
X71120000Y-54610000D02*
X71120000Y-57150000D01*
X71120000Y-57150000D02*
X48260000Y-57150000D01*
X45440000Y-54330000D02*
X46990000Y-54330000D01*
X48260000Y-54610000D02*
X48260000Y-57150000D01*
X46990000Y-57430000D02*
X45440000Y-57430000D01*
X45440000Y-57430000D02*
X45440000Y-54330000D01*
X48260000Y-26670000D02*
X71120000Y-26670000D01*
X71120000Y-26670000D02*
X71120000Y-29210000D01*
X71120000Y-29210000D02*
X48260000Y-29210000D01*
X45440000Y-26390000D02*
X46990000Y-26390000D01*
X48260000Y-26670000D02*
X48260000Y-29210000D01*
X46990000Y-29490000D02*
X45440000Y-29490000D01*
X45440000Y-29490000D02*
X45440000Y-26390000D01*
X42613000Y-47228000D02*
X42613000Y-45228000D01*
X44763000Y-45228000D02*
X44763000Y-47228000D01*
X48065000Y-45228000D02*
X48065000Y-47228000D01*
X45915000Y-47228000D02*
X45915000Y-45228000D01*
X50892000Y-53707000D02*
X49692000Y-53707000D01*
X49692000Y-51957000D02*
X50892000Y-51957000D01*
X45558000Y-53707000D02*
X44358000Y-53707000D01*
X44358000Y-51957000D02*
X45558000Y-51957000D01*
X39925714Y-37758667D02*
X40401905Y-37758667D01*
X39830476Y-38044381D02*
X40163809Y-37044381D01*
X40497143Y-38044381D01*
X41354286Y-38044381D02*
X40782857Y-38044381D01*
X41068571Y-38044381D02*
X41068571Y-37044381D01*
X40973333Y-37187238D01*
X40878095Y-37282476D01*
X40782857Y-37330095D01*
X39925714Y-46394667D02*
X40401905Y-46394667D01*
X39830476Y-46680381D02*
X40163809Y-45680381D01*
X40497143Y-46680381D01*
X40782857Y-45775619D02*
X40830476Y-45728000D01*
X40925714Y-45680381D01*
X41163810Y-45680381D01*
X41259048Y-45728000D01*
X41306667Y-45775619D01*
X41354286Y-45870857D01*
X41354286Y-45966095D01*
X41306667Y-46108952D01*
X40735238Y-46680381D01*
X41354286Y-46680381D01*
X67857905Y-58523143D02*
X67810286Y-58570762D01*
X67667429Y-58618381D01*
X67572191Y-58618381D01*
X67429333Y-58570762D01*
X67334095Y-58475524D01*
X67286476Y-58380286D01*
X67238857Y-58189810D01*
X67238857Y-58046952D01*
X67286476Y-57856476D01*
X67334095Y-57761238D01*
X67429333Y-57666000D01*
X67572191Y-57618381D01*
X67667429Y-57618381D01*
X67810286Y-57666000D01*
X67857905Y-57713619D01*
X68476952Y-57618381D02*
X68667429Y-57618381D01*
X68762667Y-57666000D01*
X68857905Y-57761238D01*
X68905524Y-57951714D01*
X68905524Y-58285048D01*
X68857905Y-58475524D01*
X68762667Y-58570762D01*
X68667429Y-58618381D01*
X68476952Y-58618381D01*
X68381714Y-58570762D01*
X68286476Y-58475524D01*
X68238857Y-58285048D01*
X68238857Y-57951714D01*
X68286476Y-57761238D01*
X68381714Y-57666000D01*
X68476952Y-57618381D01*
X69334095Y-58618381D02*
X69334095Y-57618381D01*
X69905524Y-58618381D01*
X69905524Y-57618381D01*
X70381714Y-58618381D02*
X70381714Y-57618381D01*
X70953143Y-58618381D01*
X70953143Y-57618381D01*
X71953143Y-58618381D02*
X71381714Y-58618381D01*
X71667428Y-58618381D02*
X71667428Y-57618381D01*
X71572190Y-57761238D01*
X71476952Y-57856476D01*
X71381714Y-57904095D01*
X67603905Y-26265143D02*
X67556286Y-26312762D01*
X67413429Y-26360381D01*
X67318191Y-26360381D01*
X67175333Y-26312762D01*
X67080095Y-26217524D01*
X67032476Y-26122286D01*
X66984857Y-25931810D01*
X66984857Y-25788952D01*
X67032476Y-25598476D01*
X67080095Y-25503238D01*
X67175333Y-25408000D01*
X67318191Y-25360381D01*
X67413429Y-25360381D01*
X67556286Y-25408000D01*
X67603905Y-25455619D01*
X68222952Y-25360381D02*
X68413429Y-25360381D01*
X68508667Y-25408000D01*
X68603905Y-25503238D01*
X68651524Y-25693714D01*
X68651524Y-26027048D01*
X68603905Y-26217524D01*
X68508667Y-26312762D01*
X68413429Y-26360381D01*
X68222952Y-26360381D01*
X68127714Y-26312762D01*
X68032476Y-26217524D01*
X67984857Y-26027048D01*
X67984857Y-25693714D01*
X68032476Y-25503238D01*
X68127714Y-25408000D01*
X68222952Y-25360381D01*
X69080095Y-26360381D02*
X69080095Y-25360381D01*
X69651524Y-26360381D01*
X69651524Y-25360381D01*
X70127714Y-26360381D02*
X70127714Y-25360381D01*
X70699143Y-26360381D01*
X70699143Y-25360381D01*
X71127714Y-25455619D02*
X71175333Y-25408000D01*
X71270571Y-25360381D01*
X71508667Y-25360381D01*
X71603905Y-25408000D01*
X71651524Y-25455619D01*
X71699143Y-25550857D01*
X71699143Y-25646095D01*
X71651524Y-25788952D01*
X71080095Y-26360381D01*
X71699143Y-26360381D01*
X44140381Y-42076666D02*
X43664190Y-42410000D01*
X44140381Y-42648095D02*
X43140381Y-42648095D01*
X43140381Y-42267142D01*
X43188000Y-42171904D01*
X43235619Y-42124285D01*
X43330857Y-42076666D01*
X43473714Y-42076666D01*
X43568952Y-42124285D01*
X43616571Y-42171904D01*
X43664190Y-42267142D01*
X43664190Y-42648095D01*
X44140381Y-41124285D02*
X44140381Y-41695714D01*
X44140381Y-41410000D02*
X43140381Y-41410000D01*
X43283238Y-41505238D01*
X43378476Y-41600476D01*
X43426095Y-41695714D01*
X47442381Y-42076666D02*
X46966190Y-42410000D01*
X47442381Y-42648095D02*
X46442381Y-42648095D01*
X46442381Y-42267142D01*
X46490000Y-42171904D01*
X46537619Y-42124285D01*
X46632857Y-42076666D01*
X46775714Y-42076666D01*
X46870952Y-42124285D01*
X46918571Y-42171904D01*
X46966190Y-42267142D01*
X46966190Y-42648095D01*
X46537619Y-41695714D02*
X46490000Y-41648095D01*
X46442381Y-41552857D01*
X46442381Y-41314761D01*
X46490000Y-41219523D01*
X46537619Y-41171904D01*
X46632857Y-41124285D01*
X46728095Y-41124285D01*
X46870952Y-41171904D01*
X47442381Y-41743333D01*
X47442381Y-41124285D01*
M02*
