M48
;DRILL file {KiCad 4.0.5+dfsg1-4} date Wed Mar  8 22:35:52 2017
;FORMAT={-:-/ absolute / inch / decimal}
FMAT,2
INCH,TZ
T1C0.018
T2C0.024
T3C0.040
%
G90
G05
M72
T1
X1.84Y-2.02
X2.49Y-1.42
X2.84Y-1.44
X2.87Y-1.17
T2
X1.85Y-1.55
X1.85Y-1.65
X1.85Y-1.75
X1.85Y-1.85
X1.85Y-1.95
X1.95Y-1.55
X1.95Y-1.65
X1.95Y-1.75
X1.95Y-1.85
X1.95Y-1.95
X2.05Y-1.55
X2.05Y-1.65
X2.05Y-1.75
X2.05Y-1.85
X2.05Y-1.95
X2.15Y-1.55
X2.15Y-1.65
X2.15Y-1.75
X2.15Y-1.85
X2.15Y-1.95
X2.15Y-2.05
X2.25Y-1.55
X2.25Y-1.65
X2.25Y-1.75
X2.25Y-1.85
X2.25Y-1.95
X2.25Y-2.05
X2.35Y-1.55
X2.35Y-1.65
X2.35Y-1.75
X2.35Y-1.85
X2.35Y-1.95
X2.35Y-2.05
X2.45Y-1.55
X2.45Y-1.65
X2.45Y-1.75
X2.45Y-1.85
X2.45Y-1.95
X2.45Y-2.05
X2.55Y-1.65
X2.55Y-1.75
X2.55Y-1.85
X2.55Y-1.95
X2.55Y-2.05
X2.65Y-2.05
T3
X1.6Y-1.1
X1.6Y-1.2
X1.6Y-1.3
X1.6Y-1.4
X1.6Y-1.6
X1.6Y-1.7
X1.6Y-1.9
X1.6Y-2.
X1.6Y-2.1
X1.6Y-2.2
X1.85Y-1.1
X1.85Y-2.2
X1.95Y-1.1
X1.95Y-2.2
X2.05Y-1.1
X2.05Y-2.2
X2.15Y-1.1
X2.15Y-2.2
X2.25Y-1.1
X2.25Y-2.2
X2.35Y-1.1
X2.35Y-2.2
X2.45Y-1.1
X2.45Y-2.2
X2.55Y-1.1
X2.55Y-2.2
X2.65Y-1.1
X2.65Y-2.2
X2.75Y-1.1
X2.75Y-2.2
T0
M30
