G04 #@! TF.FileFunction,Copper,L1,Top,Signal*
%FSLAX46Y46*%
G04 Gerber Fmt 4.6, Leading zero omitted, Abs format (unit mm)*
G04 Created by KiCad (PCBNEW 4.0.5+dfsg1-4) date Wed Mar  8 22:35:58 2017*
%MOMM*%
%LPD*%
G01*
G04 APERTURE LIST*
%ADD10C,0.100000*%
%ADD11C,0.150000*%
%ADD12C,0.300000*%
%ADD13C,0.400000*%
%ADD14R,2.032000X1.727200*%
%ADD15O,2.032000X1.727200*%
%ADD16R,1.727200X2.032000*%
%ADD17O,1.727200X2.032000*%
%ADD18R,2.000000X1.600000*%
%ADD19R,1.600000X2.000000*%
%ADD20R,0.450000X0.630000*%
%ADD21R,1.300000X0.850000*%
%ADD22R,2.000000X1.700000*%
%ADD23R,1.700000X2.000000*%
%ADD24R,1.500000X1.300000*%
%ADD25C,1.500000*%
%ADD26R,0.700000X1.524000*%
%ADD27R,2.032000X2.032000*%
%ADD28O,2.032000X2.032000*%
%ADD29C,0.863600*%
%ADD30C,0.711200*%
%ADD31C,0.355600*%
G04 APERTURE END LIST*
D10*
D11*
X177002200Y-166007200D02*
X177002200Y-198007200D01*
X285002200Y-198007200D01*
X285002200Y-166007200D01*
X177002200Y-166007200D01*
D10*
D11*
X10000000Y-10000000D02*
X10000000Y-200007200D01*
X287002200Y-200007200D01*
X287002200Y-10000000D01*
X10000000Y-10000000D01*
D10*
D11*
X12000000Y-12000000D02*
X12000000Y-198007200D01*
X285002200Y-198007200D01*
X285002200Y-12000000D01*
X12000000Y-12000000D01*
D10*
D11*
X60000000Y-12000000D02*
X60000000Y-10000000D01*
D10*
D11*
X110000000Y-12000000D02*
X110000000Y-10000000D01*
D10*
D11*
X160000000Y-12000000D02*
X160000000Y-10000000D01*
D10*
D11*
X210000000Y-12000000D02*
X210000000Y-10000000D01*
D10*
D11*
X260000000Y-12000000D02*
X260000000Y-10000000D01*
D10*
D11*
X35990476Y-11588095D02*
X35247619Y-11588095D01*
X35619048Y-11588095D02*
X35619048Y-10288095D01*
X35495238Y-10473810D01*
X35371429Y-10597619D01*
X35247619Y-10659524D01*
D10*
D11*
X85247619Y-10411905D02*
X85309524Y-10350000D01*
X85433333Y-10288095D01*
X85742857Y-10288095D01*
X85866667Y-10350000D01*
X85928571Y-10411905D01*
X85990476Y-10535714D01*
X85990476Y-10659524D01*
X85928571Y-10845238D01*
X85185714Y-11588095D01*
X85990476Y-11588095D01*
D10*
D11*
X135185714Y-10288095D02*
X135990476Y-10288095D01*
X135557143Y-10783333D01*
X135742857Y-10783333D01*
X135866667Y-10845238D01*
X135928571Y-10907143D01*
X135990476Y-11030952D01*
X135990476Y-11340476D01*
X135928571Y-11464286D01*
X135866667Y-11526190D01*
X135742857Y-11588095D01*
X135371429Y-11588095D01*
X135247619Y-11526190D01*
X135185714Y-11464286D01*
D10*
D11*
X185866667Y-10721429D02*
X185866667Y-11588095D01*
X185557143Y-10226190D02*
X185247619Y-11154762D01*
X186052381Y-11154762D01*
D10*
D11*
X235928571Y-10288095D02*
X235309524Y-10288095D01*
X235247619Y-10907143D01*
X235309524Y-10845238D01*
X235433333Y-10783333D01*
X235742857Y-10783333D01*
X235866667Y-10845238D01*
X235928571Y-10907143D01*
X235990476Y-11030952D01*
X235990476Y-11340476D01*
X235928571Y-11464286D01*
X235866667Y-11526190D01*
X235742857Y-11588095D01*
X235433333Y-11588095D01*
X235309524Y-11526190D01*
X235247619Y-11464286D01*
D10*
D11*
X285866667Y-10288095D02*
X285619048Y-10288095D01*
X285495238Y-10350000D01*
X285433333Y-10411905D01*
X285309524Y-10597619D01*
X285247619Y-10845238D01*
X285247619Y-11340476D01*
X285309524Y-11464286D01*
X285371429Y-11526190D01*
X285495238Y-11588095D01*
X285742857Y-11588095D01*
X285866667Y-11526190D01*
X285928571Y-11464286D01*
X285990476Y-11340476D01*
X285990476Y-11030952D01*
X285928571Y-10907143D01*
X285866667Y-10845238D01*
X285742857Y-10783333D01*
X285495238Y-10783333D01*
X285371429Y-10845238D01*
X285309524Y-10907143D01*
X285247619Y-11030952D01*
D10*
D11*
X60000000Y-198007200D02*
X60000000Y-200007200D01*
D10*
D11*
X110000000Y-198007200D02*
X110000000Y-200007200D01*
D10*
D11*
X160000000Y-198007200D02*
X160000000Y-200007200D01*
D10*
D11*
X210000000Y-198007200D02*
X210000000Y-200007200D01*
D10*
D11*
X260000000Y-198007200D02*
X260000000Y-200007200D01*
D10*
D11*
X35990476Y-199595295D02*
X35247619Y-199595295D01*
X35619048Y-199595295D02*
X35619048Y-198295295D01*
X35495238Y-198481010D01*
X35371429Y-198604819D01*
X35247619Y-198666724D01*
D10*
D11*
X85247619Y-198419105D02*
X85309524Y-198357200D01*
X85433333Y-198295295D01*
X85742857Y-198295295D01*
X85866667Y-198357200D01*
X85928571Y-198419105D01*
X85990476Y-198542914D01*
X85990476Y-198666724D01*
X85928571Y-198852438D01*
X85185714Y-199595295D01*
X85990476Y-199595295D01*
D10*
D11*
X135185714Y-198295295D02*
X135990476Y-198295295D01*
X135557143Y-198790533D01*
X135742857Y-198790533D01*
X135866667Y-198852438D01*
X135928571Y-198914343D01*
X135990476Y-199038152D01*
X135990476Y-199347676D01*
X135928571Y-199471486D01*
X135866667Y-199533390D01*
X135742857Y-199595295D01*
X135371429Y-199595295D01*
X135247619Y-199533390D01*
X135185714Y-199471486D01*
D10*
D11*
X185866667Y-198728629D02*
X185866667Y-199595295D01*
X185557143Y-198233390D02*
X185247619Y-199161962D01*
X186052381Y-199161962D01*
D10*
D11*
X235928571Y-198295295D02*
X235309524Y-198295295D01*
X235247619Y-198914343D01*
X235309524Y-198852438D01*
X235433333Y-198790533D01*
X235742857Y-198790533D01*
X235866667Y-198852438D01*
X235928571Y-198914343D01*
X235990476Y-199038152D01*
X235990476Y-199347676D01*
X235928571Y-199471486D01*
X235866667Y-199533390D01*
X235742857Y-199595295D01*
X235433333Y-199595295D01*
X235309524Y-199533390D01*
X235247619Y-199471486D01*
D10*
D11*
X285866667Y-198295295D02*
X285619048Y-198295295D01*
X285495238Y-198357200D01*
X285433333Y-198419105D01*
X285309524Y-198604819D01*
X285247619Y-198852438D01*
X285247619Y-199347676D01*
X285309524Y-199471486D01*
X285371429Y-199533390D01*
X285495238Y-199595295D01*
X285742857Y-199595295D01*
X285866667Y-199533390D01*
X285928571Y-199471486D01*
X285990476Y-199347676D01*
X285990476Y-199038152D01*
X285928571Y-198914343D01*
X285866667Y-198852438D01*
X285742857Y-198790533D01*
X285495238Y-198790533D01*
X285371429Y-198852438D01*
X285309524Y-198914343D01*
X285247619Y-199038152D01*
D10*
D11*
X10000000Y-60000000D02*
X12000000Y-60000000D01*
D10*
D11*
X10000000Y-110000000D02*
X12000000Y-110000000D01*
D10*
D11*
X10000000Y-160000000D02*
X12000000Y-160000000D01*
D10*
D11*
X10690476Y-35216667D02*
X11309524Y-35216667D01*
X10566667Y-35588095D02*
X11000000Y-34288095D01*
X11433333Y-35588095D01*
D10*
D11*
X11092857Y-84907143D02*
X11278571Y-84969048D01*
X11340476Y-85030952D01*
X11402381Y-85154762D01*
X11402381Y-85340476D01*
X11340476Y-85464286D01*
X11278571Y-85526190D01*
X11154762Y-85588095D01*
X10659524Y-85588095D01*
X10659524Y-84288095D01*
X11092857Y-84288095D01*
X11216667Y-84350000D01*
X11278571Y-84411905D01*
X11340476Y-84535714D01*
X11340476Y-84659524D01*
X11278571Y-84783333D01*
X11216667Y-84845238D01*
X11092857Y-84907143D01*
X10659524Y-84907143D01*
D10*
D11*
X11402381Y-135464286D02*
X11340476Y-135526190D01*
X11154762Y-135588095D01*
X11030952Y-135588095D01*
X10845238Y-135526190D01*
X10721429Y-135402381D01*
X10659524Y-135278571D01*
X10597619Y-135030952D01*
X10597619Y-134845238D01*
X10659524Y-134597619D01*
X10721429Y-134473810D01*
X10845238Y-134350000D01*
X11030952Y-134288095D01*
X11154762Y-134288095D01*
X11340476Y-134350000D01*
X11402381Y-134411905D01*
D10*
D11*
X10659524Y-185588095D02*
X10659524Y-184288095D01*
X10969048Y-184288095D01*
X11154762Y-184350000D01*
X11278571Y-184473810D01*
X11340476Y-184597619D01*
X11402381Y-184845238D01*
X11402381Y-185030952D01*
X11340476Y-185278571D01*
X11278571Y-185402381D01*
X11154762Y-185526190D01*
X10969048Y-185588095D01*
X10659524Y-185588095D01*
D10*
D11*
X287002200Y-60000000D02*
X285002200Y-60000000D01*
D10*
D11*
X287002200Y-110000000D02*
X285002200Y-110000000D01*
D10*
D11*
X287002200Y-160000000D02*
X285002200Y-160000000D01*
D10*
D11*
X285692676Y-35216667D02*
X286311724Y-35216667D01*
X285568867Y-35588095D02*
X286002200Y-34288095D01*
X286435533Y-35588095D01*
D10*
D11*
X286095057Y-84907143D02*
X286280771Y-84969048D01*
X286342676Y-85030952D01*
X286404581Y-85154762D01*
X286404581Y-85340476D01*
X286342676Y-85464286D01*
X286280771Y-85526190D01*
X286156962Y-85588095D01*
X285661724Y-85588095D01*
X285661724Y-84288095D01*
X286095057Y-84288095D01*
X286218867Y-84350000D01*
X286280771Y-84411905D01*
X286342676Y-84535714D01*
X286342676Y-84659524D01*
X286280771Y-84783333D01*
X286218867Y-84845238D01*
X286095057Y-84907143D01*
X285661724Y-84907143D01*
D10*
D11*
X286404581Y-135464286D02*
X286342676Y-135526190D01*
X286156962Y-135588095D01*
X286033152Y-135588095D01*
X285847438Y-135526190D01*
X285723629Y-135402381D01*
X285661724Y-135278571D01*
X285599819Y-135030952D01*
X285599819Y-134845238D01*
X285661724Y-134597619D01*
X285723629Y-134473810D01*
X285847438Y-134350000D01*
X286033152Y-134288095D01*
X286156962Y-134288095D01*
X286342676Y-134350000D01*
X286404581Y-134411905D01*
D10*
D11*
X285661724Y-185588095D02*
X285661724Y-184288095D01*
X285971248Y-184288095D01*
X286156962Y-184350000D01*
X286280771Y-184473810D01*
X286342676Y-184597619D01*
X286404581Y-184845238D01*
X286404581Y-185030952D01*
X286342676Y-185278571D01*
X286280771Y-185402381D01*
X286156962Y-185526190D01*
X285971248Y-185588095D01*
X285661724Y-185588095D01*
D10*
D11*
X200359343Y-193785771D02*
X200359343Y-192285771D01*
X200716486Y-192285771D01*
X200930771Y-192357200D01*
X201073629Y-192500057D01*
X201145057Y-192642914D01*
X201216486Y-192928629D01*
X201216486Y-193142914D01*
X201145057Y-193428629D01*
X201073629Y-193571486D01*
X200930771Y-193714343D01*
X200716486Y-193785771D01*
X200359343Y-193785771D01*
X202502200Y-193785771D02*
X202502200Y-193000057D01*
X202430771Y-192857200D01*
X202287914Y-192785771D01*
X202002200Y-192785771D01*
X201859343Y-192857200D01*
X202502200Y-193714343D02*
X202359343Y-193785771D01*
X202002200Y-193785771D01*
X201859343Y-193714343D01*
X201787914Y-193571486D01*
X201787914Y-193428629D01*
X201859343Y-193285771D01*
X202002200Y-193214343D01*
X202359343Y-193214343D01*
X202502200Y-193142914D01*
X203002200Y-192785771D02*
X203573629Y-192785771D01*
X203216486Y-192285771D02*
X203216486Y-193571486D01*
X203287914Y-193714343D01*
X203430772Y-193785771D01*
X203573629Y-193785771D01*
X204645057Y-193714343D02*
X204502200Y-193785771D01*
X204216486Y-193785771D01*
X204073629Y-193714343D01*
X204002200Y-193571486D01*
X204002200Y-193000057D01*
X204073629Y-192857200D01*
X204216486Y-192785771D01*
X204502200Y-192785771D01*
X204645057Y-192857200D01*
X204716486Y-193000057D01*
X204716486Y-193142914D01*
X204002200Y-193285771D01*
X205359343Y-193642914D02*
X205430771Y-193714343D01*
X205359343Y-193785771D01*
X205287914Y-193714343D01*
X205359343Y-193642914D01*
X205359343Y-193785771D01*
X205359343Y-192857200D02*
X205430771Y-192928629D01*
X205359343Y-193000057D01*
X205287914Y-192928629D01*
X205359343Y-192857200D01*
X205359343Y-193000057D01*
D10*
D11*
X177002200Y-194507200D02*
X285002200Y-194507200D01*
D10*
D11*
X178359343Y-196585771D02*
X178359343Y-195085771D01*
X179216486Y-196585771D02*
X178573629Y-195728629D01*
X179216486Y-195085771D02*
X178359343Y-195942914D01*
X179859343Y-196585771D02*
X179859343Y-195585771D01*
X179859343Y-195085771D02*
X179787914Y-195157200D01*
X179859343Y-195228629D01*
X179930771Y-195157200D01*
X179859343Y-195085771D01*
X179859343Y-195228629D01*
X181430772Y-196442914D02*
X181359343Y-196514343D01*
X181145057Y-196585771D01*
X181002200Y-196585771D01*
X180787915Y-196514343D01*
X180645057Y-196371486D01*
X180573629Y-196228629D01*
X180502200Y-195942914D01*
X180502200Y-195728629D01*
X180573629Y-195442914D01*
X180645057Y-195300057D01*
X180787915Y-195157200D01*
X181002200Y-195085771D01*
X181145057Y-195085771D01*
X181359343Y-195157200D01*
X181430772Y-195228629D01*
X182716486Y-196585771D02*
X182716486Y-195800057D01*
X182645057Y-195657200D01*
X182502200Y-195585771D01*
X182216486Y-195585771D01*
X182073629Y-195657200D01*
X182716486Y-196514343D02*
X182573629Y-196585771D01*
X182216486Y-196585771D01*
X182073629Y-196514343D01*
X182002200Y-196371486D01*
X182002200Y-196228629D01*
X182073629Y-196085771D01*
X182216486Y-196014343D01*
X182573629Y-196014343D01*
X182716486Y-195942914D01*
X184073629Y-196585771D02*
X184073629Y-195085771D01*
X184073629Y-196514343D02*
X183930772Y-196585771D01*
X183645058Y-196585771D01*
X183502200Y-196514343D01*
X183430772Y-196442914D01*
X183359343Y-196300057D01*
X183359343Y-195871486D01*
X183430772Y-195728629D01*
X183502200Y-195657200D01*
X183645058Y-195585771D01*
X183930772Y-195585771D01*
X184073629Y-195657200D01*
X185930772Y-195800057D02*
X186430772Y-195800057D01*
X186645058Y-196585771D02*
X185930772Y-196585771D01*
X185930772Y-195085771D01*
X186645058Y-195085771D01*
X187287915Y-196442914D02*
X187359343Y-196514343D01*
X187287915Y-196585771D01*
X187216486Y-196514343D01*
X187287915Y-196442914D01*
X187287915Y-196585771D01*
X188002201Y-196585771D02*
X188002201Y-195085771D01*
X188359344Y-195085771D01*
X188573629Y-195157200D01*
X188716487Y-195300057D01*
X188787915Y-195442914D01*
X188859344Y-195728629D01*
X188859344Y-195942914D01*
X188787915Y-196228629D01*
X188716487Y-196371486D01*
X188573629Y-196514343D01*
X188359344Y-196585771D01*
X188002201Y-196585771D01*
X189502201Y-196442914D02*
X189573629Y-196514343D01*
X189502201Y-196585771D01*
X189430772Y-196514343D01*
X189502201Y-196442914D01*
X189502201Y-196585771D01*
X190145058Y-196157200D02*
X190859344Y-196157200D01*
X190002201Y-196585771D02*
X190502201Y-195085771D01*
X191002201Y-196585771D01*
X191502201Y-196442914D02*
X191573629Y-196514343D01*
X191502201Y-196585771D01*
X191430772Y-196514343D01*
X191502201Y-196442914D01*
X191502201Y-196585771D01*
X194502201Y-196585771D02*
X194502201Y-195085771D01*
X194645058Y-196014343D02*
X195073629Y-196585771D01*
X195073629Y-195585771D02*
X194502201Y-196157200D01*
X195716487Y-196585771D02*
X195716487Y-195585771D01*
X195716487Y-195085771D02*
X195645058Y-195157200D01*
X195716487Y-195228629D01*
X195787915Y-195157200D01*
X195716487Y-195085771D01*
X195716487Y-195228629D01*
X197073630Y-196514343D02*
X196930773Y-196585771D01*
X196645059Y-196585771D01*
X196502201Y-196514343D01*
X196430773Y-196442914D01*
X196359344Y-196300057D01*
X196359344Y-195871486D01*
X196430773Y-195728629D01*
X196502201Y-195657200D01*
X196645059Y-195585771D01*
X196930773Y-195585771D01*
X197073630Y-195657200D01*
X198359344Y-196585771D02*
X198359344Y-195800057D01*
X198287915Y-195657200D01*
X198145058Y-195585771D01*
X197859344Y-195585771D01*
X197716487Y-195657200D01*
X198359344Y-196514343D02*
X198216487Y-196585771D01*
X197859344Y-196585771D01*
X197716487Y-196514343D01*
X197645058Y-196371486D01*
X197645058Y-196228629D01*
X197716487Y-196085771D01*
X197859344Y-196014343D01*
X198216487Y-196014343D01*
X198359344Y-195942914D01*
X199716487Y-196585771D02*
X199716487Y-195085771D01*
X199716487Y-196514343D02*
X199573630Y-196585771D01*
X199287916Y-196585771D01*
X199145058Y-196514343D01*
X199073630Y-196442914D01*
X199002201Y-196300057D01*
X199002201Y-195871486D01*
X199073630Y-195728629D01*
X199145058Y-195657200D01*
X199287916Y-195585771D01*
X199573630Y-195585771D01*
X199716487Y-195657200D01*
X202216487Y-195585771D02*
X202216487Y-196585771D01*
X201859344Y-195014343D02*
X201502201Y-196085771D01*
X202430773Y-196085771D01*
X203002201Y-196442914D02*
X203073629Y-196514343D01*
X203002201Y-196585771D01*
X202930772Y-196514343D01*
X203002201Y-196442914D01*
X203002201Y-196585771D01*
X204002201Y-195085771D02*
X204145058Y-195085771D01*
X204287915Y-195157200D01*
X204359344Y-195228629D01*
X204430773Y-195371486D01*
X204502201Y-195657200D01*
X204502201Y-196014343D01*
X204430773Y-196300057D01*
X204359344Y-196442914D01*
X204287915Y-196514343D01*
X204145058Y-196585771D01*
X204002201Y-196585771D01*
X203859344Y-196514343D01*
X203787915Y-196442914D01*
X203716487Y-196300057D01*
X203645058Y-196014343D01*
X203645058Y-195657200D01*
X203716487Y-195371486D01*
X203787915Y-195228629D01*
X203859344Y-195157200D01*
X204002201Y-195085771D01*
X205145058Y-196442914D02*
X205216486Y-196514343D01*
X205145058Y-196585771D01*
X205073629Y-196514343D01*
X205145058Y-196442914D01*
X205145058Y-196585771D01*
X206573630Y-195085771D02*
X205859344Y-195085771D01*
X205787915Y-195800057D01*
X205859344Y-195728629D01*
X206002201Y-195657200D01*
X206359344Y-195657200D01*
X206502201Y-195728629D01*
X206573630Y-195800057D01*
X206645058Y-195942914D01*
X206645058Y-196300057D01*
X206573630Y-196442914D01*
X206502201Y-196514343D01*
X206359344Y-196585771D01*
X206002201Y-196585771D01*
X205859344Y-196514343D01*
X205787915Y-196442914D01*
X207287915Y-196014343D02*
X208430772Y-196014343D01*
X207859343Y-196585771D02*
X207859343Y-195442914D01*
X209787915Y-196585771D02*
X209787915Y-195085771D01*
X209787915Y-196514343D02*
X209645058Y-196585771D01*
X209359344Y-196585771D01*
X209216486Y-196514343D01*
X209145058Y-196442914D01*
X209073629Y-196300057D01*
X209073629Y-195871486D01*
X209145058Y-195728629D01*
X209216486Y-195657200D01*
X209359344Y-195585771D01*
X209645058Y-195585771D01*
X209787915Y-195657200D01*
X210287915Y-195585771D02*
X210859344Y-195585771D01*
X210502201Y-196585771D02*
X210502201Y-195300057D01*
X210573629Y-195157200D01*
X210716487Y-195085771D01*
X210859344Y-195085771D01*
X211287915Y-196514343D02*
X211430772Y-196585771D01*
X211716487Y-196585771D01*
X211859344Y-196514343D01*
X211930772Y-196371486D01*
X211930772Y-196300057D01*
X211859344Y-196157200D01*
X211716487Y-196085771D01*
X211502201Y-196085771D01*
X211359344Y-196014343D01*
X211287915Y-195871486D01*
X211287915Y-195800057D01*
X211359344Y-195657200D01*
X211502201Y-195585771D01*
X211716487Y-195585771D01*
X211859344Y-195657200D01*
X213216487Y-195585771D02*
X213216487Y-196800057D01*
X213145058Y-196942914D01*
X213073630Y-197014343D01*
X212930773Y-197085771D01*
X212716487Y-197085771D01*
X212573630Y-197014343D01*
X213216487Y-196514343D02*
X213073630Y-196585771D01*
X212787916Y-196585771D01*
X212645058Y-196514343D01*
X212573630Y-196442914D01*
X212502201Y-196300057D01*
X212502201Y-195871486D01*
X212573630Y-195728629D01*
X212645058Y-195657200D01*
X212787916Y-195585771D01*
X213073630Y-195585771D01*
X213216487Y-195657200D01*
X214716487Y-196585771D02*
X213859344Y-196585771D01*
X214287916Y-196585771D02*
X214287916Y-195085771D01*
X214145059Y-195300057D01*
X214002201Y-195442914D01*
X213859344Y-195514343D01*
X215359344Y-196014343D02*
X216502201Y-196014343D01*
X217859344Y-195585771D02*
X217859344Y-196585771D01*
X217502201Y-195014343D02*
X217145058Y-196085771D01*
X218073630Y-196085771D01*
D10*
D11*
X177002200Y-191507200D02*
X285002200Y-191507200D01*
D10*
D12*
X264216486Y-193785771D02*
X263716486Y-193071486D01*
X263359343Y-193785771D02*
X263359343Y-192285771D01*
X263930771Y-192285771D01*
X264073629Y-192357200D01*
X264145057Y-192428629D01*
X264216486Y-192571486D01*
X264216486Y-192785771D01*
X264145057Y-192928629D01*
X264073629Y-193000057D01*
X263930771Y-193071486D01*
X263359343Y-193071486D01*
X265430771Y-193714343D02*
X265287914Y-193785771D01*
X265002200Y-193785771D01*
X264859343Y-193714343D01*
X264787914Y-193571486D01*
X264787914Y-193000057D01*
X264859343Y-192857200D01*
X265002200Y-192785771D01*
X265287914Y-192785771D01*
X265430771Y-192857200D01*
X265502200Y-193000057D01*
X265502200Y-193142914D01*
X264787914Y-193285771D01*
X266002200Y-192785771D02*
X266359343Y-193785771D01*
X266716485Y-192785771D01*
X267287914Y-193642914D02*
X267359342Y-193714343D01*
X267287914Y-193785771D01*
X267216485Y-193714343D01*
X267287914Y-193642914D01*
X267287914Y-193785771D01*
X267287914Y-192857200D02*
X267359342Y-192928629D01*
X267287914Y-193000057D01*
X267216485Y-192928629D01*
X267287914Y-192857200D01*
X267287914Y-193000057D01*
D10*
D11*
X178287914Y-193714343D02*
X178502200Y-193785771D01*
X178859343Y-193785771D01*
X179002200Y-193714343D01*
X179073629Y-193642914D01*
X179145057Y-193500057D01*
X179145057Y-193357200D01*
X179073629Y-193214343D01*
X179002200Y-193142914D01*
X178859343Y-193071486D01*
X178573629Y-193000057D01*
X178430771Y-192928629D01*
X178359343Y-192857200D01*
X178287914Y-192714343D01*
X178287914Y-192571486D01*
X178359343Y-192428629D01*
X178430771Y-192357200D01*
X178573629Y-192285771D01*
X178930771Y-192285771D01*
X179145057Y-192357200D01*
X179787914Y-193785771D02*
X179787914Y-192785771D01*
X179787914Y-192285771D02*
X179716485Y-192357200D01*
X179787914Y-192428629D01*
X179859342Y-192357200D01*
X179787914Y-192285771D01*
X179787914Y-192428629D01*
X180359343Y-192785771D02*
X181145057Y-192785771D01*
X180359343Y-193785771D01*
X181145057Y-193785771D01*
X182287914Y-193714343D02*
X182145057Y-193785771D01*
X181859343Y-193785771D01*
X181716486Y-193714343D01*
X181645057Y-193571486D01*
X181645057Y-193000057D01*
X181716486Y-192857200D01*
X181859343Y-192785771D01*
X182145057Y-192785771D01*
X182287914Y-192857200D01*
X182359343Y-193000057D01*
X182359343Y-193142914D01*
X181645057Y-193285771D01*
X183002200Y-193642914D02*
X183073628Y-193714343D01*
X183002200Y-193785771D01*
X182930771Y-193714343D01*
X183002200Y-193642914D01*
X183002200Y-193785771D01*
X183002200Y-192857200D02*
X183073628Y-192928629D01*
X183002200Y-193000057D01*
X182930771Y-192928629D01*
X183002200Y-192857200D01*
X183002200Y-193000057D01*
X184787914Y-193357200D02*
X185502200Y-193357200D01*
X184645057Y-193785771D02*
X185145057Y-192285771D01*
X185645057Y-193785771D01*
X186787914Y-192785771D02*
X186787914Y-193785771D01*
X186430771Y-192214343D02*
X186073628Y-193285771D01*
X187002200Y-193285771D01*
D10*
D11*
X263359343Y-196585771D02*
X263359343Y-195085771D01*
X264716486Y-196585771D02*
X264716486Y-195085771D01*
X264716486Y-196514343D02*
X264573629Y-196585771D01*
X264287915Y-196585771D01*
X264145057Y-196514343D01*
X264073629Y-196442914D01*
X264002200Y-196300057D01*
X264002200Y-195871486D01*
X264073629Y-195728629D01*
X264145057Y-195657200D01*
X264287915Y-195585771D01*
X264573629Y-195585771D01*
X264716486Y-195657200D01*
X265430772Y-196442914D02*
X265502200Y-196514343D01*
X265430772Y-196585771D01*
X265359343Y-196514343D01*
X265430772Y-196442914D01*
X265430772Y-196585771D01*
X265430772Y-195657200D02*
X265502200Y-195728629D01*
X265430772Y-195800057D01*
X265359343Y-195728629D01*
X265430772Y-195657200D01*
X265430772Y-195800057D01*
X268073629Y-196585771D02*
X267216486Y-196585771D01*
X267645058Y-196585771D02*
X267645058Y-195085771D01*
X267502201Y-195300057D01*
X267359343Y-195442914D01*
X267216486Y-195514343D01*
X269787914Y-195014343D02*
X268502200Y-196942914D01*
X271073629Y-196585771D02*
X270216486Y-196585771D01*
X270645058Y-196585771D02*
X270645058Y-195085771D01*
X270502201Y-195300057D01*
X270359343Y-195442914D01*
X270216486Y-195514343D01*
D10*
D11*
X177002200Y-187507200D02*
X285002200Y-187507200D01*
D10*
D13*
X178454581Y-188211962D02*
X179597438Y-188211962D01*
X178776010Y-190211962D02*
X179026010Y-188211962D01*
X180014105Y-190211962D02*
X180180771Y-188878629D01*
X180264105Y-188211962D02*
X180156962Y-188307200D01*
X180240295Y-188402438D01*
X180347439Y-188307200D01*
X180264105Y-188211962D01*
X180240295Y-188402438D01*
X180847438Y-188878629D02*
X181609343Y-188878629D01*
X181216486Y-188211962D02*
X181002200Y-189926248D01*
X181073630Y-190116724D01*
X181252201Y-190211962D01*
X181442677Y-190211962D01*
X182395058Y-190211962D02*
X182216487Y-190116724D01*
X182145057Y-189926248D01*
X182359343Y-188211962D01*
X183930772Y-190116724D02*
X183728391Y-190211962D01*
X183347439Y-190211962D01*
X183168867Y-190116724D01*
X183097438Y-189926248D01*
X183192676Y-189164343D01*
X183311724Y-188973867D01*
X183514105Y-188878629D01*
X183895057Y-188878629D01*
X184073629Y-188973867D01*
X184145057Y-189164343D01*
X184121248Y-189354819D01*
X183145057Y-189545295D01*
X184895057Y-190021486D02*
X184978392Y-190116724D01*
X184871248Y-190211962D01*
X184787915Y-190116724D01*
X184895057Y-190021486D01*
X184871248Y-190211962D01*
X185026010Y-188973867D02*
X185109344Y-189069105D01*
X185002200Y-189164343D01*
X184918867Y-189069105D01*
X185026010Y-188973867D01*
X185002200Y-189164343D01*
X188145058Y-189164343D02*
X188418867Y-189259581D01*
X188502202Y-189354819D01*
X188573630Y-189545295D01*
X188537916Y-189831010D01*
X188418868Y-190021486D01*
X188311725Y-190116724D01*
X188109344Y-190211962D01*
X187347439Y-190211962D01*
X187597439Y-188211962D01*
X188264106Y-188211962D01*
X188442677Y-188307200D01*
X188526010Y-188402438D01*
X188597440Y-188592914D01*
X188573630Y-188783390D01*
X188454582Y-188973867D01*
X188347439Y-189069105D01*
X188145058Y-189164343D01*
X187478391Y-189164343D01*
X190371248Y-188878629D02*
X190204582Y-190211962D01*
X189514105Y-188878629D02*
X189383153Y-189926248D01*
X189454583Y-190116724D01*
X189633154Y-190211962D01*
X189918868Y-190211962D01*
X190121249Y-190116724D01*
X190228391Y-190021486D01*
X192180772Y-188878629D02*
X191978391Y-190497676D01*
X191859344Y-190688152D01*
X191752201Y-190783390D01*
X191549820Y-190878629D01*
X191264106Y-190878629D01*
X191085534Y-190783390D01*
X192026011Y-190116724D02*
X191823630Y-190211962D01*
X191442678Y-190211962D01*
X191264107Y-190116724D01*
X191180772Y-190021486D01*
X191109344Y-189831010D01*
X191180772Y-189259581D01*
X191299820Y-189069105D01*
X191406964Y-188973867D01*
X191609344Y-188878629D01*
X191990296Y-188878629D01*
X192168868Y-188973867D01*
X193597440Y-188211962D02*
X193978392Y-188211962D01*
X194156963Y-188307200D01*
X194323631Y-188497676D01*
X194371249Y-188878629D01*
X194287916Y-189545295D01*
X194145059Y-189926248D01*
X193930773Y-190116724D01*
X193728392Y-190211962D01*
X193347440Y-190211962D01*
X193168869Y-190116724D01*
X193002201Y-189926248D01*
X192954582Y-189545295D01*
X193037915Y-188878629D01*
X193180773Y-188497676D01*
X193395059Y-188307200D01*
X193597440Y-188211962D01*
X195228391Y-188878629D02*
X195061725Y-190211962D01*
X195204582Y-189069105D02*
X195311726Y-188973867D01*
X195514106Y-188878629D01*
X195799820Y-188878629D01*
X195978392Y-188973867D01*
X196049820Y-189164343D01*
X195918868Y-190211962D01*
X197645059Y-190116724D02*
X197442678Y-190211962D01*
X197061726Y-190211962D01*
X196883154Y-190116724D01*
X196811725Y-189926248D01*
X196906963Y-189164343D01*
X197026011Y-188973867D01*
X197228392Y-188878629D01*
X197609344Y-188878629D01*
X197787916Y-188973867D01*
X197859344Y-189164343D01*
X197835535Y-189354819D01*
X196859344Y-189545295D01*
X200026012Y-190116724D02*
X200299822Y-190211962D01*
X200776012Y-190211962D01*
X200978393Y-190116724D01*
X201085535Y-190021486D01*
X201204584Y-189831010D01*
X201228393Y-189640533D01*
X201156964Y-189450057D01*
X201073631Y-189354819D01*
X200895059Y-189259581D01*
X200526012Y-189164343D01*
X200347441Y-189069105D01*
X200264107Y-188973867D01*
X200192678Y-188783390D01*
X200216488Y-188592914D01*
X200335535Y-188402438D01*
X200442679Y-188307200D01*
X200645060Y-188211962D01*
X201121250Y-188211962D01*
X201395060Y-188307200D01*
X202787917Y-190116724D02*
X202585536Y-190211962D01*
X202204584Y-190211962D01*
X202026012Y-190116724D01*
X201954583Y-189926248D01*
X202049821Y-189164343D01*
X202168869Y-188973867D01*
X202371250Y-188878629D01*
X202752202Y-188878629D01*
X202930774Y-188973867D01*
X203002202Y-189164343D01*
X202978393Y-189354819D01*
X202002202Y-189545295D01*
X203895059Y-188878629D02*
X203728393Y-190211962D01*
X203871250Y-189069105D02*
X203978394Y-188973867D01*
X204180774Y-188878629D01*
X204466488Y-188878629D01*
X204645060Y-188973867D01*
X204716488Y-189164343D01*
X204585536Y-190211962D01*
X205454584Y-190116724D02*
X205633156Y-190211962D01*
X206014108Y-190211962D01*
X206216489Y-190116724D01*
X206335536Y-189926248D01*
X206347441Y-189831010D01*
X206276012Y-189640533D01*
X206097441Y-189545295D01*
X205811727Y-189545295D01*
X205633155Y-189450057D01*
X205561726Y-189259581D01*
X205573631Y-189164343D01*
X205692679Y-188973867D01*
X205895060Y-188878629D01*
X206180774Y-188878629D01*
X206359346Y-188973867D01*
X207442680Y-190211962D02*
X207264109Y-190116724D01*
X207180774Y-190021486D01*
X207109346Y-189831010D01*
X207180774Y-189259581D01*
X207299822Y-189069105D01*
X207406966Y-188973867D01*
X207609346Y-188878629D01*
X207895060Y-188878629D01*
X208073632Y-188973867D01*
X208156965Y-189069105D01*
X208228393Y-189259581D01*
X208156965Y-189831010D01*
X208037917Y-190021486D01*
X207930775Y-190116724D01*
X207728394Y-190211962D01*
X207442680Y-190211962D01*
X208966489Y-190211962D02*
X209133155Y-188878629D01*
X209085536Y-189259581D02*
X209204585Y-189069105D01*
X209311728Y-188973867D01*
X209514108Y-188878629D01*
X209704584Y-188878629D01*
X211645061Y-190116724D02*
X211918871Y-190211962D01*
X212395061Y-190211962D01*
X212597442Y-190116724D01*
X212704584Y-190021486D01*
X212823633Y-189831010D01*
X212847442Y-189640533D01*
X212776013Y-189450057D01*
X212692680Y-189354819D01*
X212514108Y-189259581D01*
X212145061Y-189164343D01*
X211966490Y-189069105D01*
X211883156Y-188973867D01*
X211811727Y-188783390D01*
X211835537Y-188592914D01*
X211954584Y-188402438D01*
X212061728Y-188307200D01*
X212264109Y-188211962D01*
X212740299Y-188211962D01*
X213014109Y-188307200D01*
X213633156Y-190211962D02*
X213883156Y-188211962D01*
X214490299Y-190211962D02*
X214621251Y-189164343D01*
X214549823Y-188973867D01*
X214371251Y-188878629D01*
X214085537Y-188878629D01*
X213883157Y-188973867D01*
X213776013Y-189069105D01*
X215442680Y-190211962D02*
X215609346Y-188878629D01*
X215692680Y-188211962D02*
X215585537Y-188307200D01*
X215668870Y-188402438D01*
X215776014Y-188307200D01*
X215692680Y-188211962D01*
X215668870Y-188402438D01*
X217168871Y-190116724D02*
X216966490Y-190211962D01*
X216585538Y-190211962D01*
X216406966Y-190116724D01*
X216335537Y-189926248D01*
X216430775Y-189164343D01*
X216549823Y-188973867D01*
X216752204Y-188878629D01*
X217133156Y-188878629D01*
X217311728Y-188973867D01*
X217383156Y-189164343D01*
X217359347Y-189354819D01*
X216383156Y-189545295D01*
X218395062Y-190211962D02*
X218216491Y-190116724D01*
X218145061Y-189926248D01*
X218359347Y-188211962D01*
X220014109Y-190211962D02*
X220264109Y-188211962D01*
X220026014Y-190116724D02*
X219823633Y-190211962D01*
X219442681Y-190211962D01*
X219264110Y-190116724D01*
X219180775Y-190021486D01*
X219109347Y-189831010D01*
X219180775Y-189259581D01*
X219299823Y-189069105D01*
X219406967Y-188973867D01*
X219609347Y-188878629D01*
X219990299Y-188878629D01*
X220168871Y-188973867D01*
X222454586Y-188211962D02*
X222871253Y-190211962D01*
X223787920Y-188211962D01*
X224335538Y-188402438D02*
X224442681Y-188307200D01*
X224645063Y-188211962D01*
X225121253Y-188211962D01*
X225299824Y-188307200D01*
X225383157Y-188402438D01*
X225454587Y-188592914D01*
X225430777Y-188783390D01*
X225299824Y-189069105D01*
X224014110Y-190211962D01*
X225252206Y-190211962D01*
D10*
D11*
X178859343Y-185600057D02*
X178359343Y-185600057D01*
X178359343Y-186385771D02*
X178359343Y-184885771D01*
X179073629Y-184885771D01*
X179645057Y-186385771D02*
X179645057Y-185385771D01*
X179645057Y-184885771D02*
X179573628Y-184957200D01*
X179645057Y-185028629D01*
X179716485Y-184957200D01*
X179645057Y-184885771D01*
X179645057Y-185028629D01*
X180573629Y-186385771D02*
X180430771Y-186314343D01*
X180359343Y-186171486D01*
X180359343Y-184885771D01*
X181716485Y-186314343D02*
X181573628Y-186385771D01*
X181287914Y-186385771D01*
X181145057Y-186314343D01*
X181073628Y-186171486D01*
X181073628Y-185600057D01*
X181145057Y-185457200D01*
X181287914Y-185385771D01*
X181573628Y-185385771D01*
X181716485Y-185457200D01*
X181787914Y-185600057D01*
X181787914Y-185742914D01*
X181073628Y-185885771D01*
X182430771Y-186242914D02*
X182502199Y-186314343D01*
X182430771Y-186385771D01*
X182359342Y-186314343D01*
X182430771Y-186242914D01*
X182430771Y-186385771D01*
X182430771Y-185457200D02*
X182502199Y-185528629D01*
X182430771Y-185600057D01*
X182359342Y-185528629D01*
X182430771Y-185457200D01*
X182430771Y-185600057D01*
X184216485Y-186314343D02*
X184359342Y-186385771D01*
X184645057Y-186385771D01*
X184787914Y-186314343D01*
X184859342Y-186171486D01*
X184859342Y-186100057D01*
X184787914Y-185957200D01*
X184645057Y-185885771D01*
X184430771Y-185885771D01*
X184287914Y-185814343D01*
X184216485Y-185671486D01*
X184216485Y-185600057D01*
X184287914Y-185457200D01*
X184430771Y-185385771D01*
X184645057Y-185385771D01*
X184787914Y-185457200D01*
X186073628Y-186314343D02*
X185930771Y-186385771D01*
X185645057Y-186385771D01*
X185502200Y-186314343D01*
X185430771Y-186171486D01*
X185430771Y-185600057D01*
X185502200Y-185457200D01*
X185645057Y-185385771D01*
X185930771Y-185385771D01*
X186073628Y-185457200D01*
X186145057Y-185600057D01*
X186145057Y-185742914D01*
X185430771Y-185885771D01*
X186787914Y-185385771D02*
X186787914Y-186385771D01*
X186787914Y-185528629D02*
X186859342Y-185457200D01*
X187002200Y-185385771D01*
X187216485Y-185385771D01*
X187359342Y-185457200D01*
X187430771Y-185600057D01*
X187430771Y-186385771D01*
X188073628Y-186314343D02*
X188216485Y-186385771D01*
X188502200Y-186385771D01*
X188645057Y-186314343D01*
X188716485Y-186171486D01*
X188716485Y-186100057D01*
X188645057Y-185957200D01*
X188502200Y-185885771D01*
X188287914Y-185885771D01*
X188145057Y-185814343D01*
X188073628Y-185671486D01*
X188073628Y-185600057D01*
X188145057Y-185457200D01*
X188287914Y-185385771D01*
X188502200Y-185385771D01*
X188645057Y-185457200D01*
X189573629Y-186385771D02*
X189430771Y-186314343D01*
X189359343Y-186242914D01*
X189287914Y-186100057D01*
X189287914Y-185671486D01*
X189359343Y-185528629D01*
X189430771Y-185457200D01*
X189573629Y-185385771D01*
X189787914Y-185385771D01*
X189930771Y-185457200D01*
X190002200Y-185528629D01*
X190073629Y-185671486D01*
X190073629Y-186100057D01*
X190002200Y-186242914D01*
X189930771Y-186314343D01*
X189787914Y-186385771D01*
X189573629Y-186385771D01*
X190716486Y-186385771D02*
X190716486Y-185385771D01*
X190716486Y-185671486D02*
X190787914Y-185528629D01*
X190859343Y-185457200D01*
X191002200Y-185385771D01*
X191145057Y-185385771D01*
X191287914Y-186528629D02*
X192430771Y-186528629D01*
X192716485Y-186314343D02*
X192859342Y-186385771D01*
X193145057Y-186385771D01*
X193287914Y-186314343D01*
X193359342Y-186171486D01*
X193359342Y-186100057D01*
X193287914Y-185957200D01*
X193145057Y-185885771D01*
X192930771Y-185885771D01*
X192787914Y-185814343D01*
X192716485Y-185671486D01*
X192716485Y-185600057D01*
X192787914Y-185457200D01*
X192930771Y-185385771D01*
X193145057Y-185385771D01*
X193287914Y-185457200D01*
X194002200Y-186385771D02*
X194002200Y-184885771D01*
X194645057Y-186385771D02*
X194645057Y-185600057D01*
X194573628Y-185457200D01*
X194430771Y-185385771D01*
X194216486Y-185385771D01*
X194073628Y-185457200D01*
X194002200Y-185528629D01*
X195359343Y-186385771D02*
X195359343Y-185385771D01*
X195359343Y-184885771D02*
X195287914Y-184957200D01*
X195359343Y-185028629D01*
X195430771Y-184957200D01*
X195359343Y-184885771D01*
X195359343Y-185028629D01*
X196645057Y-186314343D02*
X196502200Y-186385771D01*
X196216486Y-186385771D01*
X196073629Y-186314343D01*
X196002200Y-186171486D01*
X196002200Y-185600057D01*
X196073629Y-185457200D01*
X196216486Y-185385771D01*
X196502200Y-185385771D01*
X196645057Y-185457200D01*
X196716486Y-185600057D01*
X196716486Y-185742914D01*
X196002200Y-185885771D01*
X197573629Y-186385771D02*
X197430771Y-186314343D01*
X197359343Y-186171486D01*
X197359343Y-184885771D01*
X198787914Y-186385771D02*
X198787914Y-184885771D01*
X198787914Y-186314343D02*
X198645057Y-186385771D01*
X198359343Y-186385771D01*
X198216485Y-186314343D01*
X198145057Y-186242914D01*
X198073628Y-186100057D01*
X198073628Y-185671486D01*
X198145057Y-185528629D01*
X198216485Y-185457200D01*
X198359343Y-185385771D01*
X198645057Y-185385771D01*
X198787914Y-185457200D01*
X199502200Y-186242914D02*
X199573628Y-186314343D01*
X199502200Y-186385771D01*
X199430771Y-186314343D01*
X199502200Y-186242914D01*
X199502200Y-186385771D01*
X200216486Y-186385771D02*
X200216486Y-184885771D01*
X200359343Y-185814343D02*
X200787914Y-186385771D01*
X200787914Y-185385771D02*
X200216486Y-185957200D01*
X201430772Y-186385771D02*
X201430772Y-185385771D01*
X201430772Y-184885771D02*
X201359343Y-184957200D01*
X201430772Y-185028629D01*
X201502200Y-184957200D01*
X201430772Y-184885771D01*
X201430772Y-185028629D01*
X202787915Y-186314343D02*
X202645058Y-186385771D01*
X202359344Y-186385771D01*
X202216486Y-186314343D01*
X202145058Y-186242914D01*
X202073629Y-186100057D01*
X202073629Y-185671486D01*
X202145058Y-185528629D01*
X202216486Y-185457200D01*
X202359344Y-185385771D01*
X202645058Y-185385771D01*
X202787915Y-185457200D01*
X204073629Y-186385771D02*
X204073629Y-185600057D01*
X204002200Y-185457200D01*
X203859343Y-185385771D01*
X203573629Y-185385771D01*
X203430772Y-185457200D01*
X204073629Y-186314343D02*
X203930772Y-186385771D01*
X203573629Y-186385771D01*
X203430772Y-186314343D01*
X203359343Y-186171486D01*
X203359343Y-186028629D01*
X203430772Y-185885771D01*
X203573629Y-185814343D01*
X203930772Y-185814343D01*
X204073629Y-185742914D01*
X205430772Y-186385771D02*
X205430772Y-184885771D01*
X205430772Y-186314343D02*
X205287915Y-186385771D01*
X205002201Y-186385771D01*
X204859343Y-186314343D01*
X204787915Y-186242914D01*
X204716486Y-186100057D01*
X204716486Y-185671486D01*
X204787915Y-185528629D01*
X204859343Y-185457200D01*
X205002201Y-185385771D01*
X205287915Y-185385771D01*
X205430772Y-185457200D01*
X205787915Y-186528629D02*
X206930772Y-186528629D01*
X207287915Y-185385771D02*
X207287915Y-186885771D01*
X207287915Y-185457200D02*
X207430772Y-185385771D01*
X207716486Y-185385771D01*
X207859343Y-185457200D01*
X207930772Y-185528629D01*
X208002201Y-185671486D01*
X208002201Y-186100057D01*
X207930772Y-186242914D01*
X207859343Y-186314343D01*
X207716486Y-186385771D01*
X207430772Y-186385771D01*
X207287915Y-186314343D01*
X209287915Y-186314343D02*
X209145058Y-186385771D01*
X208859344Y-186385771D01*
X208716486Y-186314343D01*
X208645058Y-186242914D01*
X208573629Y-186100057D01*
X208573629Y-185671486D01*
X208645058Y-185528629D01*
X208716486Y-185457200D01*
X208859344Y-185385771D01*
X209145058Y-185385771D01*
X209287915Y-185457200D01*
X209930772Y-186385771D02*
X209930772Y-184885771D01*
X209930772Y-185457200D02*
X210073629Y-185385771D01*
X210359343Y-185385771D01*
X210502200Y-185457200D01*
X210573629Y-185528629D01*
X210645058Y-185671486D01*
X210645058Y-186100057D01*
X210573629Y-186242914D01*
X210502200Y-186314343D01*
X210359343Y-186385771D01*
X210073629Y-186385771D01*
X209930772Y-186314343D01*
D10*
D11*
X177002200Y-181507200D02*
X285002200Y-181507200D01*
D10*
D11*
X178287914Y-183614343D02*
X178502200Y-183685771D01*
X178859343Y-183685771D01*
X179002200Y-183614343D01*
X179073629Y-183542914D01*
X179145057Y-183400057D01*
X179145057Y-183257200D01*
X179073629Y-183114343D01*
X179002200Y-183042914D01*
X178859343Y-182971486D01*
X178573629Y-182900057D01*
X178430771Y-182828629D01*
X178359343Y-182757200D01*
X178287914Y-182614343D01*
X178287914Y-182471486D01*
X178359343Y-182328629D01*
X178430771Y-182257200D01*
X178573629Y-182185771D01*
X178930771Y-182185771D01*
X179145057Y-182257200D01*
X179787914Y-183685771D02*
X179787914Y-182185771D01*
X180430771Y-183685771D02*
X180430771Y-182900057D01*
X180359342Y-182757200D01*
X180216485Y-182685771D01*
X180002200Y-182685771D01*
X179859342Y-182757200D01*
X179787914Y-182828629D01*
X181716485Y-183614343D02*
X181573628Y-183685771D01*
X181287914Y-183685771D01*
X181145057Y-183614343D01*
X181073628Y-183471486D01*
X181073628Y-182900057D01*
X181145057Y-182757200D01*
X181287914Y-182685771D01*
X181573628Y-182685771D01*
X181716485Y-182757200D01*
X181787914Y-182900057D01*
X181787914Y-183042914D01*
X181073628Y-183185771D01*
X183002199Y-183614343D02*
X182859342Y-183685771D01*
X182573628Y-183685771D01*
X182430771Y-183614343D01*
X182359342Y-183471486D01*
X182359342Y-182900057D01*
X182430771Y-182757200D01*
X182573628Y-182685771D01*
X182859342Y-182685771D01*
X183002199Y-182757200D01*
X183073628Y-182900057D01*
X183073628Y-183042914D01*
X182359342Y-183185771D01*
X183502199Y-182685771D02*
X184073628Y-182685771D01*
X183716485Y-182185771D02*
X183716485Y-183471486D01*
X183787913Y-183614343D01*
X183930771Y-183685771D01*
X184073628Y-183685771D01*
X184573628Y-183542914D02*
X184645056Y-183614343D01*
X184573628Y-183685771D01*
X184502199Y-183614343D01*
X184573628Y-183542914D01*
X184573628Y-183685771D01*
X184573628Y-182757200D02*
X184645056Y-182828629D01*
X184573628Y-182900057D01*
X184502199Y-182828629D01*
X184573628Y-182757200D01*
X184573628Y-182900057D01*
D10*
D11*
X197002200Y-191507200D02*
X197002200Y-194507200D01*
D10*
D11*
X261002200Y-191507200D02*
X261002200Y-198007200D01*
D14*
X40640000Y-27940000D03*
D15*
X40640000Y-30480000D03*
X40640000Y-33020000D03*
X40640000Y-35560000D03*
D14*
X40640000Y-55880000D03*
D15*
X40640000Y-53340000D03*
X40640000Y-50800000D03*
X40640000Y-48260000D03*
D16*
X46990000Y-55880000D03*
D17*
X49530000Y-55880000D03*
X52070000Y-55880000D03*
X54610000Y-55880000D03*
X57150000Y-55880000D03*
X59690000Y-55880000D03*
X62230000Y-55880000D03*
X64770000Y-55880000D03*
X67310000Y-55880000D03*
X69850000Y-55880000D03*
D16*
X46990000Y-27940000D03*
D17*
X49530000Y-27940000D03*
X52070000Y-27940000D03*
X54610000Y-27940000D03*
X57150000Y-27940000D03*
X59690000Y-27940000D03*
X62230000Y-27940000D03*
X64770000Y-27940000D03*
X67310000Y-27940000D03*
X69850000Y-27940000D03*
D18*
X68612000Y-49530000D03*
X72612000Y-49530000D03*
D19*
X68072000Y-35274000D03*
X68072000Y-31274000D03*
D20*
X72832000Y-31426000D03*
X71882000Y-31426000D03*
X70932000Y-31426000D03*
X70932000Y-34106000D03*
X71882000Y-34106000D03*
X72832000Y-34106000D03*
D21*
X71232000Y-33191000D03*
X72532000Y-33191000D03*
X71232000Y-32341000D03*
X72532000Y-32341000D03*
D22*
X50578000Y-30988000D03*
X54578000Y-30988000D03*
X50578000Y-34036000D03*
X54578000Y-34036000D03*
X68612000Y-38862000D03*
X72612000Y-38862000D03*
D23*
X44450000Y-31020000D03*
X44450000Y-35020000D03*
D22*
X63722000Y-34036000D03*
X59722000Y-34036000D03*
X59722000Y-30988000D03*
X63722000Y-30988000D03*
D24*
X43100000Y-53086000D03*
X45800000Y-53086000D03*
X48180000Y-53086000D03*
X50880000Y-53086000D03*
D25*
X49530000Y-39370000D03*
X52070000Y-39370000D03*
X54610000Y-39370000D03*
X57150000Y-39370000D03*
X59690000Y-39370000D03*
X62230000Y-39370000D03*
X49530000Y-41910000D03*
X52070000Y-41910000D03*
X54610000Y-41910000D03*
X57150000Y-41910000D03*
X59690000Y-41910000D03*
X62230000Y-41910000D03*
X64770000Y-41910000D03*
X49530000Y-44450000D03*
X52070000Y-44450000D03*
X54610000Y-44450000D03*
X57150000Y-44450000D03*
X59690000Y-44450000D03*
X62230000Y-44450000D03*
X64770000Y-44450000D03*
X49530000Y-46990000D03*
X52070000Y-46990000D03*
X54610000Y-46990000D03*
X57150000Y-46990000D03*
X59690000Y-46990000D03*
X62230000Y-46990000D03*
X64770000Y-46990000D03*
X52070000Y-49530000D03*
X54610000Y-49530000D03*
X57150000Y-49530000D03*
X59690000Y-49530000D03*
X62230000Y-49530000D03*
X64770000Y-49530000D03*
X64770000Y-52070000D03*
X62230000Y-52070000D03*
X59690000Y-52070000D03*
X57150000Y-52070000D03*
X54610000Y-52070000D03*
X67310000Y-52070000D03*
D26*
X70932000Y-45958000D03*
X71882000Y-45958000D03*
X72832000Y-45958000D03*
X72832000Y-42434000D03*
X71882000Y-42434000D03*
X70932000Y-42434000D03*
D27*
X40640000Y-40640000D03*
D28*
X40640000Y-43180000D03*
D25*
X49530000Y-49530000D03*
X46990000Y-49530000D03*
X46990000Y-46990000D03*
X46990000Y-44450000D03*
X46990000Y-41910000D03*
X46990000Y-39370000D03*
D29*
X72898000Y-29718000D03*
X72136000Y-36576000D03*
X46736000Y-51308000D03*
X63246000Y-36068000D03*
D30*
X46990000Y-55880000D02*
X46990000Y-55118000D01*
X46990000Y-55118000D02*
X48180000Y-53928000D01*
X48180000Y-53928000D02*
X48180000Y-53086000D01*
X40640000Y-43180000D02*
X40640000Y-48260000D01*
X69850000Y-55880000D02*
X70612000Y-55880000D01*
X70612000Y-55880000D02*
X72612000Y-53880000D01*
X72612000Y-53880000D02*
X72612000Y-49530000D01*
X63722000Y-30988000D02*
X67786000Y-30988000D01*
X67786000Y-30988000D02*
X69850000Y-28924000D01*
X69850000Y-28924000D02*
X69850000Y-27940000D01*
D31*
X71882000Y-31426000D02*
X71882000Y-29972000D01*
X71882000Y-29972000D02*
X69850000Y-27940000D01*
X72832000Y-45958000D02*
X72832000Y-49310000D01*
X72832000Y-49310000D02*
X72612000Y-49530000D01*
X71882000Y-45958000D02*
X71882000Y-48800000D01*
X71882000Y-48800000D02*
X72612000Y-49530000D01*
D30*
X40640000Y-55880000D02*
X42164000Y-55880000D01*
X43100000Y-54944000D02*
X43100000Y-53086000D01*
X42164000Y-55880000D02*
X43100000Y-54944000D01*
X44450000Y-31020000D02*
X44450000Y-29210000D01*
X45720000Y-27940000D02*
X46990000Y-27940000D01*
X44450000Y-29210000D02*
X45720000Y-27940000D01*
D31*
X68612000Y-49530000D02*
X68834000Y-49530000D01*
X68834000Y-49530000D02*
X70932000Y-47432000D01*
X70932000Y-47432000D02*
X70932000Y-45958000D01*
D30*
X65024000Y-38862000D02*
X67564000Y-41402000D01*
X67564000Y-48482000D02*
X68612000Y-49530000D01*
X67564000Y-41402000D02*
X67564000Y-48482000D01*
D31*
X68072000Y-35274000D02*
X71406000Y-35274000D01*
X71882000Y-34798000D02*
X71882000Y-34106000D01*
X71406000Y-35274000D02*
X71882000Y-34798000D01*
D30*
X63500000Y-37338000D02*
X65500000Y-37338000D01*
X65500000Y-37338000D02*
X68072000Y-34766000D01*
X63246000Y-37338000D02*
X63500000Y-37338000D01*
X65024000Y-38862000D02*
X68612000Y-38862000D01*
X63500000Y-37338000D02*
X65024000Y-38862000D01*
X50578000Y-34036000D02*
X50578000Y-35846000D01*
X52070000Y-37338000D02*
X63246000Y-37338000D01*
X50578000Y-35846000D02*
X52070000Y-37338000D01*
X46990000Y-27940000D02*
X46990000Y-29718000D01*
X48260000Y-30988000D02*
X50578000Y-30988000D01*
X50578000Y-30988000D02*
X50578000Y-34036000D01*
X46990000Y-29718000D02*
X48260000Y-30988000D01*
D31*
X40640000Y-40640000D02*
X43180000Y-38100000D01*
X44450000Y-36830000D02*
X44450000Y-35020000D01*
X43180000Y-38100000D02*
X44450000Y-36830000D01*
X38862000Y-43942000D02*
X38862000Y-41148000D01*
X38862000Y-43942000D02*
X38862000Y-57150000D01*
X57150000Y-55880000D02*
X57150000Y-57404000D01*
X56388000Y-58166000D02*
X57150000Y-57404000D01*
X39878000Y-58166000D02*
X56388000Y-58166000D01*
X38862000Y-57150000D02*
X39878000Y-58166000D01*
X39370000Y-40640000D02*
X40640000Y-40640000D01*
X38862000Y-41148000D02*
X39370000Y-40640000D01*
X74041000Y-35941000D02*
X74041000Y-26543000D01*
X54610000Y-26670000D02*
X54610000Y-27940000D01*
X55626000Y-25654000D02*
X54610000Y-26670000D01*
X73152000Y-25654000D02*
X55626000Y-25654000D01*
X74041000Y-26543000D02*
X73152000Y-25654000D01*
X54578000Y-30988000D02*
X54578000Y-27972000D01*
X54578000Y-27972000D02*
X54610000Y-27940000D01*
X72832000Y-42434000D02*
X72882000Y-42434000D01*
X72882000Y-42434000D02*
X74422000Y-40894000D01*
X74422000Y-40894000D02*
X74422000Y-36322000D01*
X74422000Y-36322000D02*
X74041000Y-35941000D01*
X74041000Y-35941000D02*
X72832000Y-34732000D01*
X72832000Y-34732000D02*
X72832000Y-34106000D01*
X57150000Y-27940000D02*
X57150000Y-27432000D01*
X70932000Y-42434000D02*
X70932000Y-37526000D01*
X72832000Y-29784000D02*
X72832000Y-31426000D01*
X72898000Y-29718000D02*
X72832000Y-29784000D01*
X71882000Y-36576000D02*
X72136000Y-36576000D01*
X70932000Y-37526000D02*
X71882000Y-36576000D01*
X54578000Y-34036000D02*
X55880000Y-34036000D01*
X57150000Y-32766000D02*
X57150000Y-27940000D01*
X55880000Y-34036000D02*
X57150000Y-32766000D01*
X59722000Y-30988000D02*
X59722000Y-27972000D01*
X59722000Y-27972000D02*
X59690000Y-27940000D01*
X59722000Y-34036000D02*
X59722000Y-30988000D01*
X71882000Y-42434000D02*
X71882000Y-41148000D01*
X72612000Y-40418000D02*
X72612000Y-38862000D01*
X71882000Y-41148000D02*
X72612000Y-40418000D01*
X63722000Y-34036000D02*
X63722000Y-35592000D01*
X63246000Y-36068000D02*
X63722000Y-35592000D01*
X45800000Y-53086000D02*
X45800000Y-52244000D01*
X45800000Y-52244000D02*
X46736000Y-51308000D01*
X50880000Y-51896000D02*
X50880000Y-53086000D01*
X46736000Y-51308000D02*
X50292000Y-51308000D01*
X50292000Y-51308000D02*
X50880000Y-51896000D01*
M02*
