G04 #@! TF.FileFunction,Copper,L2,Bot,Signal*
%FSLAX46Y46*%
G04 Gerber Fmt 4.6, Leading zero omitted, Abs format (unit mm)*
G04 Created by KiCad (PCBNEW 4.0.5+dfsg1-4) date Tue Mar  7 19:26:32 2017*
%MOMM*%
%LPD*%
G01*
G04 APERTURE LIST*
%ADD10C,0.100000*%
%ADD11C,0.150000*%
%ADD12C,0.300000*%
%ADD13C,0.400000*%
%ADD14R,2.032000X1.727200*%
%ADD15O,2.032000X1.727200*%
%ADD16R,1.727200X2.032000*%
%ADD17O,1.727200X2.032000*%
%ADD18C,1.524000*%
%ADD19C,1.500000*%
%ADD20C,0.863600*%
%ADD21C,0.355600*%
%ADD22C,0.254000*%
G04 APERTURE END LIST*
D10*
D11*
X177002200Y-166007200D02*
X177002200Y-198007200D01*
X285002200Y-198007200D01*
X285002200Y-166007200D01*
X177002200Y-166007200D01*
D10*
D11*
X10000000Y-10000000D02*
X10000000Y-200007200D01*
X287002200Y-200007200D01*
X287002200Y-10000000D01*
X10000000Y-10000000D01*
D10*
D11*
X12000000Y-12000000D02*
X12000000Y-198007200D01*
X285002200Y-198007200D01*
X285002200Y-12000000D01*
X12000000Y-12000000D01*
D10*
D11*
X60000000Y-12000000D02*
X60000000Y-10000000D01*
D10*
D11*
X110000000Y-12000000D02*
X110000000Y-10000000D01*
D10*
D11*
X160000000Y-12000000D02*
X160000000Y-10000000D01*
D10*
D11*
X210000000Y-12000000D02*
X210000000Y-10000000D01*
D10*
D11*
X260000000Y-12000000D02*
X260000000Y-10000000D01*
D10*
D11*
X35990476Y-11588095D02*
X35247619Y-11588095D01*
X35619048Y-11588095D02*
X35619048Y-10288095D01*
X35495238Y-10473810D01*
X35371429Y-10597619D01*
X35247619Y-10659524D01*
D10*
D11*
X85247619Y-10411905D02*
X85309524Y-10350000D01*
X85433333Y-10288095D01*
X85742857Y-10288095D01*
X85866667Y-10350000D01*
X85928571Y-10411905D01*
X85990476Y-10535714D01*
X85990476Y-10659524D01*
X85928571Y-10845238D01*
X85185714Y-11588095D01*
X85990476Y-11588095D01*
D10*
D11*
X135185714Y-10288095D02*
X135990476Y-10288095D01*
X135557143Y-10783333D01*
X135742857Y-10783333D01*
X135866667Y-10845238D01*
X135928571Y-10907143D01*
X135990476Y-11030952D01*
X135990476Y-11340476D01*
X135928571Y-11464286D01*
X135866667Y-11526190D01*
X135742857Y-11588095D01*
X135371429Y-11588095D01*
X135247619Y-11526190D01*
X135185714Y-11464286D01*
D10*
D11*
X185866667Y-10721429D02*
X185866667Y-11588095D01*
X185557143Y-10226190D02*
X185247619Y-11154762D01*
X186052381Y-11154762D01*
D10*
D11*
X235928571Y-10288095D02*
X235309524Y-10288095D01*
X235247619Y-10907143D01*
X235309524Y-10845238D01*
X235433333Y-10783333D01*
X235742857Y-10783333D01*
X235866667Y-10845238D01*
X235928571Y-10907143D01*
X235990476Y-11030952D01*
X235990476Y-11340476D01*
X235928571Y-11464286D01*
X235866667Y-11526190D01*
X235742857Y-11588095D01*
X235433333Y-11588095D01*
X235309524Y-11526190D01*
X235247619Y-11464286D01*
D10*
D11*
X285866667Y-10288095D02*
X285619048Y-10288095D01*
X285495238Y-10350000D01*
X285433333Y-10411905D01*
X285309524Y-10597619D01*
X285247619Y-10845238D01*
X285247619Y-11340476D01*
X285309524Y-11464286D01*
X285371429Y-11526190D01*
X285495238Y-11588095D01*
X285742857Y-11588095D01*
X285866667Y-11526190D01*
X285928571Y-11464286D01*
X285990476Y-11340476D01*
X285990476Y-11030952D01*
X285928571Y-10907143D01*
X285866667Y-10845238D01*
X285742857Y-10783333D01*
X285495238Y-10783333D01*
X285371429Y-10845238D01*
X285309524Y-10907143D01*
X285247619Y-11030952D01*
D10*
D11*
X60000000Y-198007200D02*
X60000000Y-200007200D01*
D10*
D11*
X110000000Y-198007200D02*
X110000000Y-200007200D01*
D10*
D11*
X160000000Y-198007200D02*
X160000000Y-200007200D01*
D10*
D11*
X210000000Y-198007200D02*
X210000000Y-200007200D01*
D10*
D11*
X260000000Y-198007200D02*
X260000000Y-200007200D01*
D10*
D11*
X35990476Y-199595295D02*
X35247619Y-199595295D01*
X35619048Y-199595295D02*
X35619048Y-198295295D01*
X35495238Y-198481010D01*
X35371429Y-198604819D01*
X35247619Y-198666724D01*
D10*
D11*
X85247619Y-198419105D02*
X85309524Y-198357200D01*
X85433333Y-198295295D01*
X85742857Y-198295295D01*
X85866667Y-198357200D01*
X85928571Y-198419105D01*
X85990476Y-198542914D01*
X85990476Y-198666724D01*
X85928571Y-198852438D01*
X85185714Y-199595295D01*
X85990476Y-199595295D01*
D10*
D11*
X135185714Y-198295295D02*
X135990476Y-198295295D01*
X135557143Y-198790533D01*
X135742857Y-198790533D01*
X135866667Y-198852438D01*
X135928571Y-198914343D01*
X135990476Y-199038152D01*
X135990476Y-199347676D01*
X135928571Y-199471486D01*
X135866667Y-199533390D01*
X135742857Y-199595295D01*
X135371429Y-199595295D01*
X135247619Y-199533390D01*
X135185714Y-199471486D01*
D10*
D11*
X185866667Y-198728629D02*
X185866667Y-199595295D01*
X185557143Y-198233390D02*
X185247619Y-199161962D01*
X186052381Y-199161962D01*
D10*
D11*
X235928571Y-198295295D02*
X235309524Y-198295295D01*
X235247619Y-198914343D01*
X235309524Y-198852438D01*
X235433333Y-198790533D01*
X235742857Y-198790533D01*
X235866667Y-198852438D01*
X235928571Y-198914343D01*
X235990476Y-199038152D01*
X235990476Y-199347676D01*
X235928571Y-199471486D01*
X235866667Y-199533390D01*
X235742857Y-199595295D01*
X235433333Y-199595295D01*
X235309524Y-199533390D01*
X235247619Y-199471486D01*
D10*
D11*
X285866667Y-198295295D02*
X285619048Y-198295295D01*
X285495238Y-198357200D01*
X285433333Y-198419105D01*
X285309524Y-198604819D01*
X285247619Y-198852438D01*
X285247619Y-199347676D01*
X285309524Y-199471486D01*
X285371429Y-199533390D01*
X285495238Y-199595295D01*
X285742857Y-199595295D01*
X285866667Y-199533390D01*
X285928571Y-199471486D01*
X285990476Y-199347676D01*
X285990476Y-199038152D01*
X285928571Y-198914343D01*
X285866667Y-198852438D01*
X285742857Y-198790533D01*
X285495238Y-198790533D01*
X285371429Y-198852438D01*
X285309524Y-198914343D01*
X285247619Y-199038152D01*
D10*
D11*
X10000000Y-60000000D02*
X12000000Y-60000000D01*
D10*
D11*
X10000000Y-110000000D02*
X12000000Y-110000000D01*
D10*
D11*
X10000000Y-160000000D02*
X12000000Y-160000000D01*
D10*
D11*
X10690476Y-35216667D02*
X11309524Y-35216667D01*
X10566667Y-35588095D02*
X11000000Y-34288095D01*
X11433333Y-35588095D01*
D10*
D11*
X11092857Y-84907143D02*
X11278571Y-84969048D01*
X11340476Y-85030952D01*
X11402381Y-85154762D01*
X11402381Y-85340476D01*
X11340476Y-85464286D01*
X11278571Y-85526190D01*
X11154762Y-85588095D01*
X10659524Y-85588095D01*
X10659524Y-84288095D01*
X11092857Y-84288095D01*
X11216667Y-84350000D01*
X11278571Y-84411905D01*
X11340476Y-84535714D01*
X11340476Y-84659524D01*
X11278571Y-84783333D01*
X11216667Y-84845238D01*
X11092857Y-84907143D01*
X10659524Y-84907143D01*
D10*
D11*
X11402381Y-135464286D02*
X11340476Y-135526190D01*
X11154762Y-135588095D01*
X11030952Y-135588095D01*
X10845238Y-135526190D01*
X10721429Y-135402381D01*
X10659524Y-135278571D01*
X10597619Y-135030952D01*
X10597619Y-134845238D01*
X10659524Y-134597619D01*
X10721429Y-134473810D01*
X10845238Y-134350000D01*
X11030952Y-134288095D01*
X11154762Y-134288095D01*
X11340476Y-134350000D01*
X11402381Y-134411905D01*
D10*
D11*
X10659524Y-185588095D02*
X10659524Y-184288095D01*
X10969048Y-184288095D01*
X11154762Y-184350000D01*
X11278571Y-184473810D01*
X11340476Y-184597619D01*
X11402381Y-184845238D01*
X11402381Y-185030952D01*
X11340476Y-185278571D01*
X11278571Y-185402381D01*
X11154762Y-185526190D01*
X10969048Y-185588095D01*
X10659524Y-185588095D01*
D10*
D11*
X287002200Y-60000000D02*
X285002200Y-60000000D01*
D10*
D11*
X287002200Y-110000000D02*
X285002200Y-110000000D01*
D10*
D11*
X287002200Y-160000000D02*
X285002200Y-160000000D01*
D10*
D11*
X285692676Y-35216667D02*
X286311724Y-35216667D01*
X285568867Y-35588095D02*
X286002200Y-34288095D01*
X286435533Y-35588095D01*
D10*
D11*
X286095057Y-84907143D02*
X286280771Y-84969048D01*
X286342676Y-85030952D01*
X286404581Y-85154762D01*
X286404581Y-85340476D01*
X286342676Y-85464286D01*
X286280771Y-85526190D01*
X286156962Y-85588095D01*
X285661724Y-85588095D01*
X285661724Y-84288095D01*
X286095057Y-84288095D01*
X286218867Y-84350000D01*
X286280771Y-84411905D01*
X286342676Y-84535714D01*
X286342676Y-84659524D01*
X286280771Y-84783333D01*
X286218867Y-84845238D01*
X286095057Y-84907143D01*
X285661724Y-84907143D01*
D10*
D11*
X286404581Y-135464286D02*
X286342676Y-135526190D01*
X286156962Y-135588095D01*
X286033152Y-135588095D01*
X285847438Y-135526190D01*
X285723629Y-135402381D01*
X285661724Y-135278571D01*
X285599819Y-135030952D01*
X285599819Y-134845238D01*
X285661724Y-134597619D01*
X285723629Y-134473810D01*
X285847438Y-134350000D01*
X286033152Y-134288095D01*
X286156962Y-134288095D01*
X286342676Y-134350000D01*
X286404581Y-134411905D01*
D10*
D11*
X285661724Y-185588095D02*
X285661724Y-184288095D01*
X285971248Y-184288095D01*
X286156962Y-184350000D01*
X286280771Y-184473810D01*
X286342676Y-184597619D01*
X286404581Y-184845238D01*
X286404581Y-185030952D01*
X286342676Y-185278571D01*
X286280771Y-185402381D01*
X286156962Y-185526190D01*
X285971248Y-185588095D01*
X285661724Y-185588095D01*
D10*
D11*
X200359343Y-193785771D02*
X200359343Y-192285771D01*
X200716486Y-192285771D01*
X200930771Y-192357200D01*
X201073629Y-192500057D01*
X201145057Y-192642914D01*
X201216486Y-192928629D01*
X201216486Y-193142914D01*
X201145057Y-193428629D01*
X201073629Y-193571486D01*
X200930771Y-193714343D01*
X200716486Y-193785771D01*
X200359343Y-193785771D01*
X202502200Y-193785771D02*
X202502200Y-193000057D01*
X202430771Y-192857200D01*
X202287914Y-192785771D01*
X202002200Y-192785771D01*
X201859343Y-192857200D01*
X202502200Y-193714343D02*
X202359343Y-193785771D01*
X202002200Y-193785771D01*
X201859343Y-193714343D01*
X201787914Y-193571486D01*
X201787914Y-193428629D01*
X201859343Y-193285771D01*
X202002200Y-193214343D01*
X202359343Y-193214343D01*
X202502200Y-193142914D01*
X203002200Y-192785771D02*
X203573629Y-192785771D01*
X203216486Y-192285771D02*
X203216486Y-193571486D01*
X203287914Y-193714343D01*
X203430772Y-193785771D01*
X203573629Y-193785771D01*
X204645057Y-193714343D02*
X204502200Y-193785771D01*
X204216486Y-193785771D01*
X204073629Y-193714343D01*
X204002200Y-193571486D01*
X204002200Y-193000057D01*
X204073629Y-192857200D01*
X204216486Y-192785771D01*
X204502200Y-192785771D01*
X204645057Y-192857200D01*
X204716486Y-193000057D01*
X204716486Y-193142914D01*
X204002200Y-193285771D01*
X205359343Y-193642914D02*
X205430771Y-193714343D01*
X205359343Y-193785771D01*
X205287914Y-193714343D01*
X205359343Y-193642914D01*
X205359343Y-193785771D01*
X205359343Y-192857200D02*
X205430771Y-192928629D01*
X205359343Y-193000057D01*
X205287914Y-192928629D01*
X205359343Y-192857200D01*
X205359343Y-193000057D01*
D10*
D11*
X177002200Y-194507200D02*
X285002200Y-194507200D01*
D10*
D11*
X178359343Y-196585771D02*
X178359343Y-195085771D01*
X179216486Y-196585771D02*
X178573629Y-195728629D01*
X179216486Y-195085771D02*
X178359343Y-195942914D01*
X179859343Y-196585771D02*
X179859343Y-195585771D01*
X179859343Y-195085771D02*
X179787914Y-195157200D01*
X179859343Y-195228629D01*
X179930771Y-195157200D01*
X179859343Y-195085771D01*
X179859343Y-195228629D01*
X181430772Y-196442914D02*
X181359343Y-196514343D01*
X181145057Y-196585771D01*
X181002200Y-196585771D01*
X180787915Y-196514343D01*
X180645057Y-196371486D01*
X180573629Y-196228629D01*
X180502200Y-195942914D01*
X180502200Y-195728629D01*
X180573629Y-195442914D01*
X180645057Y-195300057D01*
X180787915Y-195157200D01*
X181002200Y-195085771D01*
X181145057Y-195085771D01*
X181359343Y-195157200D01*
X181430772Y-195228629D01*
X182716486Y-196585771D02*
X182716486Y-195800057D01*
X182645057Y-195657200D01*
X182502200Y-195585771D01*
X182216486Y-195585771D01*
X182073629Y-195657200D01*
X182716486Y-196514343D02*
X182573629Y-196585771D01*
X182216486Y-196585771D01*
X182073629Y-196514343D01*
X182002200Y-196371486D01*
X182002200Y-196228629D01*
X182073629Y-196085771D01*
X182216486Y-196014343D01*
X182573629Y-196014343D01*
X182716486Y-195942914D01*
X184073629Y-196585771D02*
X184073629Y-195085771D01*
X184073629Y-196514343D02*
X183930772Y-196585771D01*
X183645058Y-196585771D01*
X183502200Y-196514343D01*
X183430772Y-196442914D01*
X183359343Y-196300057D01*
X183359343Y-195871486D01*
X183430772Y-195728629D01*
X183502200Y-195657200D01*
X183645058Y-195585771D01*
X183930772Y-195585771D01*
X184073629Y-195657200D01*
X185930772Y-195800057D02*
X186430772Y-195800057D01*
X186645058Y-196585771D02*
X185930772Y-196585771D01*
X185930772Y-195085771D01*
X186645058Y-195085771D01*
X187287915Y-196442914D02*
X187359343Y-196514343D01*
X187287915Y-196585771D01*
X187216486Y-196514343D01*
X187287915Y-196442914D01*
X187287915Y-196585771D01*
X188002201Y-196585771D02*
X188002201Y-195085771D01*
X188359344Y-195085771D01*
X188573629Y-195157200D01*
X188716487Y-195300057D01*
X188787915Y-195442914D01*
X188859344Y-195728629D01*
X188859344Y-195942914D01*
X188787915Y-196228629D01*
X188716487Y-196371486D01*
X188573629Y-196514343D01*
X188359344Y-196585771D01*
X188002201Y-196585771D01*
X189502201Y-196442914D02*
X189573629Y-196514343D01*
X189502201Y-196585771D01*
X189430772Y-196514343D01*
X189502201Y-196442914D01*
X189502201Y-196585771D01*
X190145058Y-196157200D02*
X190859344Y-196157200D01*
X190002201Y-196585771D02*
X190502201Y-195085771D01*
X191002201Y-196585771D01*
X191502201Y-196442914D02*
X191573629Y-196514343D01*
X191502201Y-196585771D01*
X191430772Y-196514343D01*
X191502201Y-196442914D01*
X191502201Y-196585771D01*
X194502201Y-196585771D02*
X194502201Y-195085771D01*
X194645058Y-196014343D02*
X195073629Y-196585771D01*
X195073629Y-195585771D02*
X194502201Y-196157200D01*
X195716487Y-196585771D02*
X195716487Y-195585771D01*
X195716487Y-195085771D02*
X195645058Y-195157200D01*
X195716487Y-195228629D01*
X195787915Y-195157200D01*
X195716487Y-195085771D01*
X195716487Y-195228629D01*
X197073630Y-196514343D02*
X196930773Y-196585771D01*
X196645059Y-196585771D01*
X196502201Y-196514343D01*
X196430773Y-196442914D01*
X196359344Y-196300057D01*
X196359344Y-195871486D01*
X196430773Y-195728629D01*
X196502201Y-195657200D01*
X196645059Y-195585771D01*
X196930773Y-195585771D01*
X197073630Y-195657200D01*
X198359344Y-196585771D02*
X198359344Y-195800057D01*
X198287915Y-195657200D01*
X198145058Y-195585771D01*
X197859344Y-195585771D01*
X197716487Y-195657200D01*
X198359344Y-196514343D02*
X198216487Y-196585771D01*
X197859344Y-196585771D01*
X197716487Y-196514343D01*
X197645058Y-196371486D01*
X197645058Y-196228629D01*
X197716487Y-196085771D01*
X197859344Y-196014343D01*
X198216487Y-196014343D01*
X198359344Y-195942914D01*
X199716487Y-196585771D02*
X199716487Y-195085771D01*
X199716487Y-196514343D02*
X199573630Y-196585771D01*
X199287916Y-196585771D01*
X199145058Y-196514343D01*
X199073630Y-196442914D01*
X199002201Y-196300057D01*
X199002201Y-195871486D01*
X199073630Y-195728629D01*
X199145058Y-195657200D01*
X199287916Y-195585771D01*
X199573630Y-195585771D01*
X199716487Y-195657200D01*
X202216487Y-195585771D02*
X202216487Y-196585771D01*
X201859344Y-195014343D02*
X201502201Y-196085771D01*
X202430773Y-196085771D01*
X203002201Y-196442914D02*
X203073629Y-196514343D01*
X203002201Y-196585771D01*
X202930772Y-196514343D01*
X203002201Y-196442914D01*
X203002201Y-196585771D01*
X204002201Y-195085771D02*
X204145058Y-195085771D01*
X204287915Y-195157200D01*
X204359344Y-195228629D01*
X204430773Y-195371486D01*
X204502201Y-195657200D01*
X204502201Y-196014343D01*
X204430773Y-196300057D01*
X204359344Y-196442914D01*
X204287915Y-196514343D01*
X204145058Y-196585771D01*
X204002201Y-196585771D01*
X203859344Y-196514343D01*
X203787915Y-196442914D01*
X203716487Y-196300057D01*
X203645058Y-196014343D01*
X203645058Y-195657200D01*
X203716487Y-195371486D01*
X203787915Y-195228629D01*
X203859344Y-195157200D01*
X204002201Y-195085771D01*
X205145058Y-196442914D02*
X205216486Y-196514343D01*
X205145058Y-196585771D01*
X205073629Y-196514343D01*
X205145058Y-196442914D01*
X205145058Y-196585771D01*
X206573630Y-195085771D02*
X205859344Y-195085771D01*
X205787915Y-195800057D01*
X205859344Y-195728629D01*
X206002201Y-195657200D01*
X206359344Y-195657200D01*
X206502201Y-195728629D01*
X206573630Y-195800057D01*
X206645058Y-195942914D01*
X206645058Y-196300057D01*
X206573630Y-196442914D01*
X206502201Y-196514343D01*
X206359344Y-196585771D01*
X206002201Y-196585771D01*
X205859344Y-196514343D01*
X205787915Y-196442914D01*
X207287915Y-196014343D02*
X208430772Y-196014343D01*
X207859343Y-196585771D02*
X207859343Y-195442914D01*
X209787915Y-196585771D02*
X209787915Y-195085771D01*
X209787915Y-196514343D02*
X209645058Y-196585771D01*
X209359344Y-196585771D01*
X209216486Y-196514343D01*
X209145058Y-196442914D01*
X209073629Y-196300057D01*
X209073629Y-195871486D01*
X209145058Y-195728629D01*
X209216486Y-195657200D01*
X209359344Y-195585771D01*
X209645058Y-195585771D01*
X209787915Y-195657200D01*
X210287915Y-195585771D02*
X210859344Y-195585771D01*
X210502201Y-196585771D02*
X210502201Y-195300057D01*
X210573629Y-195157200D01*
X210716487Y-195085771D01*
X210859344Y-195085771D01*
X211287915Y-196514343D02*
X211430772Y-196585771D01*
X211716487Y-196585771D01*
X211859344Y-196514343D01*
X211930772Y-196371486D01*
X211930772Y-196300057D01*
X211859344Y-196157200D01*
X211716487Y-196085771D01*
X211502201Y-196085771D01*
X211359344Y-196014343D01*
X211287915Y-195871486D01*
X211287915Y-195800057D01*
X211359344Y-195657200D01*
X211502201Y-195585771D01*
X211716487Y-195585771D01*
X211859344Y-195657200D01*
X213216487Y-195585771D02*
X213216487Y-196800057D01*
X213145058Y-196942914D01*
X213073630Y-197014343D01*
X212930773Y-197085771D01*
X212716487Y-197085771D01*
X212573630Y-197014343D01*
X213216487Y-196514343D02*
X213073630Y-196585771D01*
X212787916Y-196585771D01*
X212645058Y-196514343D01*
X212573630Y-196442914D01*
X212502201Y-196300057D01*
X212502201Y-195871486D01*
X212573630Y-195728629D01*
X212645058Y-195657200D01*
X212787916Y-195585771D01*
X213073630Y-195585771D01*
X213216487Y-195657200D01*
X214716487Y-196585771D02*
X213859344Y-196585771D01*
X214287916Y-196585771D02*
X214287916Y-195085771D01*
X214145059Y-195300057D01*
X214002201Y-195442914D01*
X213859344Y-195514343D01*
X215359344Y-196014343D02*
X216502201Y-196014343D01*
X217859344Y-195585771D02*
X217859344Y-196585771D01*
X217502201Y-195014343D02*
X217145058Y-196085771D01*
X218073630Y-196085771D01*
D10*
D11*
X177002200Y-191507200D02*
X285002200Y-191507200D01*
D10*
D12*
X264216486Y-193785771D02*
X263716486Y-193071486D01*
X263359343Y-193785771D02*
X263359343Y-192285771D01*
X263930771Y-192285771D01*
X264073629Y-192357200D01*
X264145057Y-192428629D01*
X264216486Y-192571486D01*
X264216486Y-192785771D01*
X264145057Y-192928629D01*
X264073629Y-193000057D01*
X263930771Y-193071486D01*
X263359343Y-193071486D01*
X265430771Y-193714343D02*
X265287914Y-193785771D01*
X265002200Y-193785771D01*
X264859343Y-193714343D01*
X264787914Y-193571486D01*
X264787914Y-193000057D01*
X264859343Y-192857200D01*
X265002200Y-192785771D01*
X265287914Y-192785771D01*
X265430771Y-192857200D01*
X265502200Y-193000057D01*
X265502200Y-193142914D01*
X264787914Y-193285771D01*
X266002200Y-192785771D02*
X266359343Y-193785771D01*
X266716485Y-192785771D01*
X267287914Y-193642914D02*
X267359342Y-193714343D01*
X267287914Y-193785771D01*
X267216485Y-193714343D01*
X267287914Y-193642914D01*
X267287914Y-193785771D01*
X267287914Y-192857200D02*
X267359342Y-192928629D01*
X267287914Y-193000057D01*
X267216485Y-192928629D01*
X267287914Y-192857200D01*
X267287914Y-193000057D01*
D10*
D11*
X178287914Y-193714343D02*
X178502200Y-193785771D01*
X178859343Y-193785771D01*
X179002200Y-193714343D01*
X179073629Y-193642914D01*
X179145057Y-193500057D01*
X179145057Y-193357200D01*
X179073629Y-193214343D01*
X179002200Y-193142914D01*
X178859343Y-193071486D01*
X178573629Y-193000057D01*
X178430771Y-192928629D01*
X178359343Y-192857200D01*
X178287914Y-192714343D01*
X178287914Y-192571486D01*
X178359343Y-192428629D01*
X178430771Y-192357200D01*
X178573629Y-192285771D01*
X178930771Y-192285771D01*
X179145057Y-192357200D01*
X179787914Y-193785771D02*
X179787914Y-192785771D01*
X179787914Y-192285771D02*
X179716485Y-192357200D01*
X179787914Y-192428629D01*
X179859342Y-192357200D01*
X179787914Y-192285771D01*
X179787914Y-192428629D01*
X180359343Y-192785771D02*
X181145057Y-192785771D01*
X180359343Y-193785771D01*
X181145057Y-193785771D01*
X182287914Y-193714343D02*
X182145057Y-193785771D01*
X181859343Y-193785771D01*
X181716486Y-193714343D01*
X181645057Y-193571486D01*
X181645057Y-193000057D01*
X181716486Y-192857200D01*
X181859343Y-192785771D01*
X182145057Y-192785771D01*
X182287914Y-192857200D01*
X182359343Y-193000057D01*
X182359343Y-193142914D01*
X181645057Y-193285771D01*
X183002200Y-193642914D02*
X183073628Y-193714343D01*
X183002200Y-193785771D01*
X182930771Y-193714343D01*
X183002200Y-193642914D01*
X183002200Y-193785771D01*
X183002200Y-192857200D02*
X183073628Y-192928629D01*
X183002200Y-193000057D01*
X182930771Y-192928629D01*
X183002200Y-192857200D01*
X183002200Y-193000057D01*
X184787914Y-193357200D02*
X185502200Y-193357200D01*
X184645057Y-193785771D02*
X185145057Y-192285771D01*
X185645057Y-193785771D01*
X186787914Y-192785771D02*
X186787914Y-193785771D01*
X186430771Y-192214343D02*
X186073628Y-193285771D01*
X187002200Y-193285771D01*
D10*
D11*
X263359343Y-196585771D02*
X263359343Y-195085771D01*
X264716486Y-196585771D02*
X264716486Y-195085771D01*
X264716486Y-196514343D02*
X264573629Y-196585771D01*
X264287915Y-196585771D01*
X264145057Y-196514343D01*
X264073629Y-196442914D01*
X264002200Y-196300057D01*
X264002200Y-195871486D01*
X264073629Y-195728629D01*
X264145057Y-195657200D01*
X264287915Y-195585771D01*
X264573629Y-195585771D01*
X264716486Y-195657200D01*
X265430772Y-196442914D02*
X265502200Y-196514343D01*
X265430772Y-196585771D01*
X265359343Y-196514343D01*
X265430772Y-196442914D01*
X265430772Y-196585771D01*
X265430772Y-195657200D02*
X265502200Y-195728629D01*
X265430772Y-195800057D01*
X265359343Y-195728629D01*
X265430772Y-195657200D01*
X265430772Y-195800057D01*
X268073629Y-196585771D02*
X267216486Y-196585771D01*
X267645058Y-196585771D02*
X267645058Y-195085771D01*
X267502201Y-195300057D01*
X267359343Y-195442914D01*
X267216486Y-195514343D01*
X269787914Y-195014343D02*
X268502200Y-196942914D01*
X271073629Y-196585771D02*
X270216486Y-196585771D01*
X270645058Y-196585771D02*
X270645058Y-195085771D01*
X270502201Y-195300057D01*
X270359343Y-195442914D01*
X270216486Y-195514343D01*
D10*
D11*
X177002200Y-187507200D02*
X285002200Y-187507200D01*
D10*
D13*
X178454581Y-188211962D02*
X179597438Y-188211962D01*
X178776010Y-190211962D02*
X179026010Y-188211962D01*
X180014105Y-190211962D02*
X180180771Y-188878629D01*
X180264105Y-188211962D02*
X180156962Y-188307200D01*
X180240295Y-188402438D01*
X180347439Y-188307200D01*
X180264105Y-188211962D01*
X180240295Y-188402438D01*
X180847438Y-188878629D02*
X181609343Y-188878629D01*
X181216486Y-188211962D02*
X181002200Y-189926248D01*
X181073630Y-190116724D01*
X181252201Y-190211962D01*
X181442677Y-190211962D01*
X182395058Y-190211962D02*
X182216487Y-190116724D01*
X182145057Y-189926248D01*
X182359343Y-188211962D01*
X183930772Y-190116724D02*
X183728391Y-190211962D01*
X183347439Y-190211962D01*
X183168867Y-190116724D01*
X183097438Y-189926248D01*
X183192676Y-189164343D01*
X183311724Y-188973867D01*
X183514105Y-188878629D01*
X183895057Y-188878629D01*
X184073629Y-188973867D01*
X184145057Y-189164343D01*
X184121248Y-189354819D01*
X183145057Y-189545295D01*
X184895057Y-190021486D02*
X184978392Y-190116724D01*
X184871248Y-190211962D01*
X184787915Y-190116724D01*
X184895057Y-190021486D01*
X184871248Y-190211962D01*
X185026010Y-188973867D02*
X185109344Y-189069105D01*
X185002200Y-189164343D01*
X184918867Y-189069105D01*
X185026010Y-188973867D01*
X185002200Y-189164343D01*
X188145058Y-189164343D02*
X188418867Y-189259581D01*
X188502202Y-189354819D01*
X188573630Y-189545295D01*
X188537916Y-189831010D01*
X188418868Y-190021486D01*
X188311725Y-190116724D01*
X188109344Y-190211962D01*
X187347439Y-190211962D01*
X187597439Y-188211962D01*
X188264106Y-188211962D01*
X188442677Y-188307200D01*
X188526010Y-188402438D01*
X188597440Y-188592914D01*
X188573630Y-188783390D01*
X188454582Y-188973867D01*
X188347439Y-189069105D01*
X188145058Y-189164343D01*
X187478391Y-189164343D01*
X190371248Y-188878629D02*
X190204582Y-190211962D01*
X189514105Y-188878629D02*
X189383153Y-189926248D01*
X189454583Y-190116724D01*
X189633154Y-190211962D01*
X189918868Y-190211962D01*
X190121249Y-190116724D01*
X190228391Y-190021486D01*
X192180772Y-188878629D02*
X191978391Y-190497676D01*
X191859344Y-190688152D01*
X191752201Y-190783390D01*
X191549820Y-190878629D01*
X191264106Y-190878629D01*
X191085534Y-190783390D01*
X192026011Y-190116724D02*
X191823630Y-190211962D01*
X191442678Y-190211962D01*
X191264107Y-190116724D01*
X191180772Y-190021486D01*
X191109344Y-189831010D01*
X191180772Y-189259581D01*
X191299820Y-189069105D01*
X191406964Y-188973867D01*
X191609344Y-188878629D01*
X191990296Y-188878629D01*
X192168868Y-188973867D01*
X193597440Y-188211962D02*
X193978392Y-188211962D01*
X194156963Y-188307200D01*
X194323631Y-188497676D01*
X194371249Y-188878629D01*
X194287916Y-189545295D01*
X194145059Y-189926248D01*
X193930773Y-190116724D01*
X193728392Y-190211962D01*
X193347440Y-190211962D01*
X193168869Y-190116724D01*
X193002201Y-189926248D01*
X192954582Y-189545295D01*
X193037915Y-188878629D01*
X193180773Y-188497676D01*
X193395059Y-188307200D01*
X193597440Y-188211962D01*
X195228391Y-188878629D02*
X195061725Y-190211962D01*
X195204582Y-189069105D02*
X195311726Y-188973867D01*
X195514106Y-188878629D01*
X195799820Y-188878629D01*
X195978392Y-188973867D01*
X196049820Y-189164343D01*
X195918868Y-190211962D01*
X197645059Y-190116724D02*
X197442678Y-190211962D01*
X197061726Y-190211962D01*
X196883154Y-190116724D01*
X196811725Y-189926248D01*
X196906963Y-189164343D01*
X197026011Y-188973867D01*
X197228392Y-188878629D01*
X197609344Y-188878629D01*
X197787916Y-188973867D01*
X197859344Y-189164343D01*
X197835535Y-189354819D01*
X196859344Y-189545295D01*
X200026012Y-190116724D02*
X200299822Y-190211962D01*
X200776012Y-190211962D01*
X200978393Y-190116724D01*
X201085535Y-190021486D01*
X201204584Y-189831010D01*
X201228393Y-189640533D01*
X201156964Y-189450057D01*
X201073631Y-189354819D01*
X200895059Y-189259581D01*
X200526012Y-189164343D01*
X200347441Y-189069105D01*
X200264107Y-188973867D01*
X200192678Y-188783390D01*
X200216488Y-188592914D01*
X200335535Y-188402438D01*
X200442679Y-188307200D01*
X200645060Y-188211962D01*
X201121250Y-188211962D01*
X201395060Y-188307200D01*
X202787917Y-190116724D02*
X202585536Y-190211962D01*
X202204584Y-190211962D01*
X202026012Y-190116724D01*
X201954583Y-189926248D01*
X202049821Y-189164343D01*
X202168869Y-188973867D01*
X202371250Y-188878629D01*
X202752202Y-188878629D01*
X202930774Y-188973867D01*
X203002202Y-189164343D01*
X202978393Y-189354819D01*
X202002202Y-189545295D01*
X203895059Y-188878629D02*
X203728393Y-190211962D01*
X203871250Y-189069105D02*
X203978394Y-188973867D01*
X204180774Y-188878629D01*
X204466488Y-188878629D01*
X204645060Y-188973867D01*
X204716488Y-189164343D01*
X204585536Y-190211962D01*
X205454584Y-190116724D02*
X205633156Y-190211962D01*
X206014108Y-190211962D01*
X206216489Y-190116724D01*
X206335536Y-189926248D01*
X206347441Y-189831010D01*
X206276012Y-189640533D01*
X206097441Y-189545295D01*
X205811727Y-189545295D01*
X205633155Y-189450057D01*
X205561726Y-189259581D01*
X205573631Y-189164343D01*
X205692679Y-188973867D01*
X205895060Y-188878629D01*
X206180774Y-188878629D01*
X206359346Y-188973867D01*
X207442680Y-190211962D02*
X207264109Y-190116724D01*
X207180774Y-190021486D01*
X207109346Y-189831010D01*
X207180774Y-189259581D01*
X207299822Y-189069105D01*
X207406966Y-188973867D01*
X207609346Y-188878629D01*
X207895060Y-188878629D01*
X208073632Y-188973867D01*
X208156965Y-189069105D01*
X208228393Y-189259581D01*
X208156965Y-189831010D01*
X208037917Y-190021486D01*
X207930775Y-190116724D01*
X207728394Y-190211962D01*
X207442680Y-190211962D01*
X208966489Y-190211962D02*
X209133155Y-188878629D01*
X209085536Y-189259581D02*
X209204585Y-189069105D01*
X209311728Y-188973867D01*
X209514108Y-188878629D01*
X209704584Y-188878629D01*
X211645061Y-190116724D02*
X211918871Y-190211962D01*
X212395061Y-190211962D01*
X212597442Y-190116724D01*
X212704584Y-190021486D01*
X212823633Y-189831010D01*
X212847442Y-189640533D01*
X212776013Y-189450057D01*
X212692680Y-189354819D01*
X212514108Y-189259581D01*
X212145061Y-189164343D01*
X211966490Y-189069105D01*
X211883156Y-188973867D01*
X211811727Y-188783390D01*
X211835537Y-188592914D01*
X211954584Y-188402438D01*
X212061728Y-188307200D01*
X212264109Y-188211962D01*
X212740299Y-188211962D01*
X213014109Y-188307200D01*
X213633156Y-190211962D02*
X213883156Y-188211962D01*
X214490299Y-190211962D02*
X214621251Y-189164343D01*
X214549823Y-188973867D01*
X214371251Y-188878629D01*
X214085537Y-188878629D01*
X213883157Y-188973867D01*
X213776013Y-189069105D01*
X215442680Y-190211962D02*
X215609346Y-188878629D01*
X215692680Y-188211962D02*
X215585537Y-188307200D01*
X215668870Y-188402438D01*
X215776014Y-188307200D01*
X215692680Y-188211962D01*
X215668870Y-188402438D01*
X217168871Y-190116724D02*
X216966490Y-190211962D01*
X216585538Y-190211962D01*
X216406966Y-190116724D01*
X216335537Y-189926248D01*
X216430775Y-189164343D01*
X216549823Y-188973867D01*
X216752204Y-188878629D01*
X217133156Y-188878629D01*
X217311728Y-188973867D01*
X217383156Y-189164343D01*
X217359347Y-189354819D01*
X216383156Y-189545295D01*
X218395062Y-190211962D02*
X218216491Y-190116724D01*
X218145061Y-189926248D01*
X218359347Y-188211962D01*
X220014109Y-190211962D02*
X220264109Y-188211962D01*
X220026014Y-190116724D02*
X219823633Y-190211962D01*
X219442681Y-190211962D01*
X219264110Y-190116724D01*
X219180775Y-190021486D01*
X219109347Y-189831010D01*
X219180775Y-189259581D01*
X219299823Y-189069105D01*
X219406967Y-188973867D01*
X219609347Y-188878629D01*
X219990299Y-188878629D01*
X220168871Y-188973867D01*
X222454586Y-188211962D02*
X222871253Y-190211962D01*
X223787920Y-188211962D01*
X224335538Y-188402438D02*
X224442681Y-188307200D01*
X224645063Y-188211962D01*
X225121253Y-188211962D01*
X225299824Y-188307200D01*
X225383157Y-188402438D01*
X225454587Y-188592914D01*
X225430777Y-188783390D01*
X225299824Y-189069105D01*
X224014110Y-190211962D01*
X225252206Y-190211962D01*
D10*
D11*
X178859343Y-185600057D02*
X178359343Y-185600057D01*
X178359343Y-186385771D02*
X178359343Y-184885771D01*
X179073629Y-184885771D01*
X179645057Y-186385771D02*
X179645057Y-185385771D01*
X179645057Y-184885771D02*
X179573628Y-184957200D01*
X179645057Y-185028629D01*
X179716485Y-184957200D01*
X179645057Y-184885771D01*
X179645057Y-185028629D01*
X180573629Y-186385771D02*
X180430771Y-186314343D01*
X180359343Y-186171486D01*
X180359343Y-184885771D01*
X181716485Y-186314343D02*
X181573628Y-186385771D01*
X181287914Y-186385771D01*
X181145057Y-186314343D01*
X181073628Y-186171486D01*
X181073628Y-185600057D01*
X181145057Y-185457200D01*
X181287914Y-185385771D01*
X181573628Y-185385771D01*
X181716485Y-185457200D01*
X181787914Y-185600057D01*
X181787914Y-185742914D01*
X181073628Y-185885771D01*
X182430771Y-186242914D02*
X182502199Y-186314343D01*
X182430771Y-186385771D01*
X182359342Y-186314343D01*
X182430771Y-186242914D01*
X182430771Y-186385771D01*
X182430771Y-185457200D02*
X182502199Y-185528629D01*
X182430771Y-185600057D01*
X182359342Y-185528629D01*
X182430771Y-185457200D01*
X182430771Y-185600057D01*
X184216485Y-186314343D02*
X184359342Y-186385771D01*
X184645057Y-186385771D01*
X184787914Y-186314343D01*
X184859342Y-186171486D01*
X184859342Y-186100057D01*
X184787914Y-185957200D01*
X184645057Y-185885771D01*
X184430771Y-185885771D01*
X184287914Y-185814343D01*
X184216485Y-185671486D01*
X184216485Y-185600057D01*
X184287914Y-185457200D01*
X184430771Y-185385771D01*
X184645057Y-185385771D01*
X184787914Y-185457200D01*
X186073628Y-186314343D02*
X185930771Y-186385771D01*
X185645057Y-186385771D01*
X185502200Y-186314343D01*
X185430771Y-186171486D01*
X185430771Y-185600057D01*
X185502200Y-185457200D01*
X185645057Y-185385771D01*
X185930771Y-185385771D01*
X186073628Y-185457200D01*
X186145057Y-185600057D01*
X186145057Y-185742914D01*
X185430771Y-185885771D01*
X186787914Y-185385771D02*
X186787914Y-186385771D01*
X186787914Y-185528629D02*
X186859342Y-185457200D01*
X187002200Y-185385771D01*
X187216485Y-185385771D01*
X187359342Y-185457200D01*
X187430771Y-185600057D01*
X187430771Y-186385771D01*
X188073628Y-186314343D02*
X188216485Y-186385771D01*
X188502200Y-186385771D01*
X188645057Y-186314343D01*
X188716485Y-186171486D01*
X188716485Y-186100057D01*
X188645057Y-185957200D01*
X188502200Y-185885771D01*
X188287914Y-185885771D01*
X188145057Y-185814343D01*
X188073628Y-185671486D01*
X188073628Y-185600057D01*
X188145057Y-185457200D01*
X188287914Y-185385771D01*
X188502200Y-185385771D01*
X188645057Y-185457200D01*
X189573629Y-186385771D02*
X189430771Y-186314343D01*
X189359343Y-186242914D01*
X189287914Y-186100057D01*
X189287914Y-185671486D01*
X189359343Y-185528629D01*
X189430771Y-185457200D01*
X189573629Y-185385771D01*
X189787914Y-185385771D01*
X189930771Y-185457200D01*
X190002200Y-185528629D01*
X190073629Y-185671486D01*
X190073629Y-186100057D01*
X190002200Y-186242914D01*
X189930771Y-186314343D01*
X189787914Y-186385771D01*
X189573629Y-186385771D01*
X190716486Y-186385771D02*
X190716486Y-185385771D01*
X190716486Y-185671486D02*
X190787914Y-185528629D01*
X190859343Y-185457200D01*
X191002200Y-185385771D01*
X191145057Y-185385771D01*
X191287914Y-186528629D02*
X192430771Y-186528629D01*
X192716485Y-186314343D02*
X192859342Y-186385771D01*
X193145057Y-186385771D01*
X193287914Y-186314343D01*
X193359342Y-186171486D01*
X193359342Y-186100057D01*
X193287914Y-185957200D01*
X193145057Y-185885771D01*
X192930771Y-185885771D01*
X192787914Y-185814343D01*
X192716485Y-185671486D01*
X192716485Y-185600057D01*
X192787914Y-185457200D01*
X192930771Y-185385771D01*
X193145057Y-185385771D01*
X193287914Y-185457200D01*
X194002200Y-186385771D02*
X194002200Y-184885771D01*
X194645057Y-186385771D02*
X194645057Y-185600057D01*
X194573628Y-185457200D01*
X194430771Y-185385771D01*
X194216486Y-185385771D01*
X194073628Y-185457200D01*
X194002200Y-185528629D01*
X195359343Y-186385771D02*
X195359343Y-185385771D01*
X195359343Y-184885771D02*
X195287914Y-184957200D01*
X195359343Y-185028629D01*
X195430771Y-184957200D01*
X195359343Y-184885771D01*
X195359343Y-185028629D01*
X196645057Y-186314343D02*
X196502200Y-186385771D01*
X196216486Y-186385771D01*
X196073629Y-186314343D01*
X196002200Y-186171486D01*
X196002200Y-185600057D01*
X196073629Y-185457200D01*
X196216486Y-185385771D01*
X196502200Y-185385771D01*
X196645057Y-185457200D01*
X196716486Y-185600057D01*
X196716486Y-185742914D01*
X196002200Y-185885771D01*
X197573629Y-186385771D02*
X197430771Y-186314343D01*
X197359343Y-186171486D01*
X197359343Y-184885771D01*
X198787914Y-186385771D02*
X198787914Y-184885771D01*
X198787914Y-186314343D02*
X198645057Y-186385771D01*
X198359343Y-186385771D01*
X198216485Y-186314343D01*
X198145057Y-186242914D01*
X198073628Y-186100057D01*
X198073628Y-185671486D01*
X198145057Y-185528629D01*
X198216485Y-185457200D01*
X198359343Y-185385771D01*
X198645057Y-185385771D01*
X198787914Y-185457200D01*
X199502200Y-186242914D02*
X199573628Y-186314343D01*
X199502200Y-186385771D01*
X199430771Y-186314343D01*
X199502200Y-186242914D01*
X199502200Y-186385771D01*
X200216486Y-186385771D02*
X200216486Y-184885771D01*
X200359343Y-185814343D02*
X200787914Y-186385771D01*
X200787914Y-185385771D02*
X200216486Y-185957200D01*
X201430772Y-186385771D02*
X201430772Y-185385771D01*
X201430772Y-184885771D02*
X201359343Y-184957200D01*
X201430772Y-185028629D01*
X201502200Y-184957200D01*
X201430772Y-184885771D01*
X201430772Y-185028629D01*
X202787915Y-186314343D02*
X202645058Y-186385771D01*
X202359344Y-186385771D01*
X202216486Y-186314343D01*
X202145058Y-186242914D01*
X202073629Y-186100057D01*
X202073629Y-185671486D01*
X202145058Y-185528629D01*
X202216486Y-185457200D01*
X202359344Y-185385771D01*
X202645058Y-185385771D01*
X202787915Y-185457200D01*
X204073629Y-186385771D02*
X204073629Y-185600057D01*
X204002200Y-185457200D01*
X203859343Y-185385771D01*
X203573629Y-185385771D01*
X203430772Y-185457200D01*
X204073629Y-186314343D02*
X203930772Y-186385771D01*
X203573629Y-186385771D01*
X203430772Y-186314343D01*
X203359343Y-186171486D01*
X203359343Y-186028629D01*
X203430772Y-185885771D01*
X203573629Y-185814343D01*
X203930772Y-185814343D01*
X204073629Y-185742914D01*
X205430772Y-186385771D02*
X205430772Y-184885771D01*
X205430772Y-186314343D02*
X205287915Y-186385771D01*
X205002201Y-186385771D01*
X204859343Y-186314343D01*
X204787915Y-186242914D01*
X204716486Y-186100057D01*
X204716486Y-185671486D01*
X204787915Y-185528629D01*
X204859343Y-185457200D01*
X205002201Y-185385771D01*
X205287915Y-185385771D01*
X205430772Y-185457200D01*
X205787915Y-186528629D02*
X206930772Y-186528629D01*
X207287915Y-185385771D02*
X207287915Y-186885771D01*
X207287915Y-185457200D02*
X207430772Y-185385771D01*
X207716486Y-185385771D01*
X207859343Y-185457200D01*
X207930772Y-185528629D01*
X208002201Y-185671486D01*
X208002201Y-186100057D01*
X207930772Y-186242914D01*
X207859343Y-186314343D01*
X207716486Y-186385771D01*
X207430772Y-186385771D01*
X207287915Y-186314343D01*
X209287915Y-186314343D02*
X209145058Y-186385771D01*
X208859344Y-186385771D01*
X208716486Y-186314343D01*
X208645058Y-186242914D01*
X208573629Y-186100057D01*
X208573629Y-185671486D01*
X208645058Y-185528629D01*
X208716486Y-185457200D01*
X208859344Y-185385771D01*
X209145058Y-185385771D01*
X209287915Y-185457200D01*
X209930772Y-186385771D02*
X209930772Y-184885771D01*
X209930772Y-185457200D02*
X210073629Y-185385771D01*
X210359343Y-185385771D01*
X210502200Y-185457200D01*
X210573629Y-185528629D01*
X210645058Y-185671486D01*
X210645058Y-186100057D01*
X210573629Y-186242914D01*
X210502200Y-186314343D01*
X210359343Y-186385771D01*
X210073629Y-186385771D01*
X209930772Y-186314343D01*
D10*
D11*
X177002200Y-181507200D02*
X285002200Y-181507200D01*
D10*
D11*
X178287914Y-183614343D02*
X178502200Y-183685771D01*
X178859343Y-183685771D01*
X179002200Y-183614343D01*
X179073629Y-183542914D01*
X179145057Y-183400057D01*
X179145057Y-183257200D01*
X179073629Y-183114343D01*
X179002200Y-183042914D01*
X178859343Y-182971486D01*
X178573629Y-182900057D01*
X178430771Y-182828629D01*
X178359343Y-182757200D01*
X178287914Y-182614343D01*
X178287914Y-182471486D01*
X178359343Y-182328629D01*
X178430771Y-182257200D01*
X178573629Y-182185771D01*
X178930771Y-182185771D01*
X179145057Y-182257200D01*
X179787914Y-183685771D02*
X179787914Y-182185771D01*
X180430771Y-183685771D02*
X180430771Y-182900057D01*
X180359342Y-182757200D01*
X180216485Y-182685771D01*
X180002200Y-182685771D01*
X179859342Y-182757200D01*
X179787914Y-182828629D01*
X181716485Y-183614343D02*
X181573628Y-183685771D01*
X181287914Y-183685771D01*
X181145057Y-183614343D01*
X181073628Y-183471486D01*
X181073628Y-182900057D01*
X181145057Y-182757200D01*
X181287914Y-182685771D01*
X181573628Y-182685771D01*
X181716485Y-182757200D01*
X181787914Y-182900057D01*
X181787914Y-183042914D01*
X181073628Y-183185771D01*
X183002199Y-183614343D02*
X182859342Y-183685771D01*
X182573628Y-183685771D01*
X182430771Y-183614343D01*
X182359342Y-183471486D01*
X182359342Y-182900057D01*
X182430771Y-182757200D01*
X182573628Y-182685771D01*
X182859342Y-182685771D01*
X183002199Y-182757200D01*
X183073628Y-182900057D01*
X183073628Y-183042914D01*
X182359342Y-183185771D01*
X183502199Y-182685771D02*
X184073628Y-182685771D01*
X183716485Y-182185771D02*
X183716485Y-183471486D01*
X183787913Y-183614343D01*
X183930771Y-183685771D01*
X184073628Y-183685771D01*
X184573628Y-183542914D02*
X184645056Y-183614343D01*
X184573628Y-183685771D01*
X184502199Y-183614343D01*
X184573628Y-183542914D01*
X184573628Y-183685771D01*
X184573628Y-182757200D02*
X184645056Y-182828629D01*
X184573628Y-182900057D01*
X184502199Y-182828629D01*
X184573628Y-182757200D01*
X184573628Y-182900057D01*
D10*
D11*
X197002200Y-191507200D02*
X197002200Y-194507200D01*
D10*
D11*
X261002200Y-191507200D02*
X261002200Y-198007200D01*
D14*
X40640000Y-27940000D03*
D15*
X40640000Y-30480000D03*
X40640000Y-33020000D03*
X40640000Y-35560000D03*
D14*
X40640000Y-55880000D03*
D15*
X40640000Y-53340000D03*
X40640000Y-50800000D03*
X40640000Y-48260000D03*
D16*
X46990000Y-55880000D03*
D17*
X49530000Y-55880000D03*
X52070000Y-55880000D03*
X54610000Y-55880000D03*
X57150000Y-55880000D03*
X59690000Y-55880000D03*
X62230000Y-55880000D03*
X64770000Y-55880000D03*
X67310000Y-55880000D03*
X69850000Y-55880000D03*
D16*
X46990000Y-27940000D03*
D17*
X49530000Y-27940000D03*
X52070000Y-27940000D03*
X54610000Y-27940000D03*
X57150000Y-27940000D03*
X59690000Y-27940000D03*
X62230000Y-27940000D03*
X64770000Y-27940000D03*
X67310000Y-27940000D03*
X69850000Y-27940000D03*
D18*
X42418000Y-41910000D03*
X42418000Y-39370000D03*
X42418000Y-44450000D03*
D19*
X49530000Y-39370000D03*
X52070000Y-39370000D03*
X54610000Y-39370000D03*
X57150000Y-39370000D03*
X59690000Y-39370000D03*
X62230000Y-39370000D03*
X49530000Y-41910000D03*
X52070000Y-41910000D03*
X54610000Y-41910000D03*
X57150000Y-41910000D03*
X59690000Y-41910000D03*
X62230000Y-41910000D03*
X64770000Y-41910000D03*
X49530000Y-44450000D03*
X52070000Y-44450000D03*
X54610000Y-44450000D03*
X57150000Y-44450000D03*
X59690000Y-44450000D03*
X62230000Y-44450000D03*
X64770000Y-44450000D03*
X49530000Y-46990000D03*
X52070000Y-46990000D03*
X54610000Y-46990000D03*
X57150000Y-46990000D03*
X59690000Y-46990000D03*
X62230000Y-46990000D03*
X64770000Y-46990000D03*
X52070000Y-49530000D03*
X54610000Y-49530000D03*
X57150000Y-49530000D03*
X59690000Y-49530000D03*
X62230000Y-49530000D03*
X64770000Y-49530000D03*
X64770000Y-52070000D03*
X62230000Y-52070000D03*
X59690000Y-52070000D03*
X57150000Y-52070000D03*
X54610000Y-52070000D03*
X67310000Y-52070000D03*
D20*
X72898000Y-29718000D03*
X72136000Y-36576000D03*
X46736000Y-48006000D03*
X63246000Y-36068000D03*
D21*
X72898000Y-29718000D02*
X72898000Y-26670000D01*
X57150000Y-26670000D02*
X57150000Y-27940000D01*
X58166000Y-25654000D02*
X57150000Y-26670000D01*
X71882000Y-25654000D02*
X58166000Y-25654000D01*
X72898000Y-26670000D02*
X71882000Y-25654000D01*
X72898000Y-35814000D02*
X72898000Y-29718000D01*
X72136000Y-36576000D02*
X72898000Y-35814000D01*
X44958000Y-46228000D02*
X46736000Y-48006000D01*
X44958000Y-37084000D02*
X44958000Y-46228000D01*
X45974000Y-36068000D02*
X44958000Y-37084000D01*
X63246000Y-36068000D02*
X45974000Y-36068000D01*
D22*
G36*
X56575264Y-26095264D02*
X56399071Y-26358955D01*
X56369172Y-26509269D01*
X56090330Y-26695585D01*
X55880000Y-27010366D01*
X55669670Y-26695585D01*
X55183489Y-26370729D01*
X54610000Y-26256655D01*
X54036511Y-26370729D01*
X53550330Y-26695585D01*
X53340000Y-27010366D01*
X53129670Y-26695585D01*
X52643489Y-26370729D01*
X52070000Y-26256655D01*
X51496511Y-26370729D01*
X51010330Y-26695585D01*
X50800000Y-27010366D01*
X50589670Y-26695585D01*
X50103489Y-26370729D01*
X49530000Y-26256655D01*
X48956511Y-26370729D01*
X48470330Y-26695585D01*
X48460757Y-26709913D01*
X48456762Y-26688683D01*
X48317690Y-26472559D01*
X48105490Y-26327569D01*
X47853600Y-26276560D01*
X46126400Y-26276560D01*
X45891083Y-26320838D01*
X45674959Y-26459910D01*
X45529969Y-26672110D01*
X45478960Y-26924000D01*
X45478960Y-28956000D01*
X45523238Y-29191317D01*
X45662310Y-29407441D01*
X45874510Y-29552431D01*
X46126400Y-29603440D01*
X47853600Y-29603440D01*
X48088917Y-29559162D01*
X48305041Y-29420090D01*
X48450031Y-29207890D01*
X48458400Y-29166561D01*
X48470330Y-29184415D01*
X48956511Y-29509271D01*
X49530000Y-29623345D01*
X50103489Y-29509271D01*
X50589670Y-29184415D01*
X50800000Y-28869634D01*
X51010330Y-29184415D01*
X51496511Y-29509271D01*
X52070000Y-29623345D01*
X52643489Y-29509271D01*
X53129670Y-29184415D01*
X53340000Y-28869634D01*
X53550330Y-29184415D01*
X54036511Y-29509271D01*
X54610000Y-29623345D01*
X55183489Y-29509271D01*
X55669670Y-29184415D01*
X55880000Y-28869634D01*
X56090330Y-29184415D01*
X56576511Y-29509271D01*
X57150000Y-29623345D01*
X57723489Y-29509271D01*
X58209670Y-29184415D01*
X58420000Y-28869634D01*
X58630330Y-29184415D01*
X59116511Y-29509271D01*
X59690000Y-29623345D01*
X60263489Y-29509271D01*
X60749670Y-29184415D01*
X60960000Y-28869634D01*
X61170330Y-29184415D01*
X61656511Y-29509271D01*
X62230000Y-29623345D01*
X62803489Y-29509271D01*
X63289670Y-29184415D01*
X63500000Y-28869634D01*
X63710330Y-29184415D01*
X64196511Y-29509271D01*
X64770000Y-29623345D01*
X65343489Y-29509271D01*
X65829670Y-29184415D01*
X66040000Y-28869634D01*
X66250330Y-29184415D01*
X66736511Y-29509271D01*
X67310000Y-29623345D01*
X67883489Y-29509271D01*
X68369670Y-29184415D01*
X68576461Y-28874931D01*
X68947964Y-29290732D01*
X69475209Y-29544709D01*
X69490974Y-29547358D01*
X69723000Y-29426217D01*
X69723000Y-28067000D01*
X69977000Y-28067000D01*
X69977000Y-29426217D01*
X70209026Y-29547358D01*
X70224791Y-29544709D01*
X70752036Y-29290732D01*
X71141954Y-28854320D01*
X71335184Y-28301913D01*
X71190924Y-28067000D01*
X69977000Y-28067000D01*
X69723000Y-28067000D01*
X69703000Y-28067000D01*
X69703000Y-27813000D01*
X69723000Y-27813000D01*
X69723000Y-27793000D01*
X69977000Y-27793000D01*
X69977000Y-27813000D01*
X71190924Y-27813000D01*
X71335184Y-27578087D01*
X71141954Y-27025680D01*
X70752036Y-26589268D01*
X70497798Y-26466800D01*
X71545328Y-26466800D01*
X72085200Y-27006672D01*
X72085200Y-29022014D01*
X71994138Y-29112917D01*
X71831385Y-29504869D01*
X71831015Y-29929269D01*
X71993084Y-30321504D01*
X72085200Y-30413781D01*
X72085200Y-35477327D01*
X72053400Y-35509127D01*
X71924731Y-35509015D01*
X71532496Y-35671084D01*
X71232138Y-35970917D01*
X71069385Y-36362869D01*
X71069015Y-36787269D01*
X71231084Y-37179504D01*
X71530917Y-37479862D01*
X71922869Y-37642615D01*
X72347269Y-37642985D01*
X72739504Y-37480916D01*
X73039862Y-37181083D01*
X73202615Y-36789131D01*
X73202729Y-36658744D01*
X73472737Y-36388736D01*
X73648929Y-36125045D01*
X73710800Y-35814000D01*
X73710800Y-30413986D01*
X73801862Y-30323083D01*
X73964615Y-29931131D01*
X73964985Y-29506731D01*
X73802916Y-29114496D01*
X73710800Y-29022219D01*
X73710800Y-26670000D01*
X73648929Y-26358955D01*
X73472736Y-26095264D01*
X73208472Y-25831000D01*
X74245000Y-25831000D01*
X74245000Y-58243000D01*
X39039000Y-58243000D01*
X39039000Y-57007142D01*
X39159910Y-57195041D01*
X39372110Y-57340031D01*
X39624000Y-57391040D01*
X41656000Y-57391040D01*
X41891317Y-57346762D01*
X42107441Y-57207690D01*
X42252431Y-56995490D01*
X42303440Y-56743600D01*
X42303440Y-55016400D01*
X42274764Y-54864000D01*
X45478960Y-54864000D01*
X45478960Y-56896000D01*
X45523238Y-57131317D01*
X45662310Y-57347441D01*
X45874510Y-57492431D01*
X46126400Y-57543440D01*
X47853600Y-57543440D01*
X48088917Y-57499162D01*
X48305041Y-57360090D01*
X48450031Y-57147890D01*
X48458400Y-57106561D01*
X48470330Y-57124415D01*
X48956511Y-57449271D01*
X49530000Y-57563345D01*
X50103489Y-57449271D01*
X50589670Y-57124415D01*
X50800000Y-56809634D01*
X51010330Y-57124415D01*
X51496511Y-57449271D01*
X52070000Y-57563345D01*
X52643489Y-57449271D01*
X53129670Y-57124415D01*
X53340000Y-56809634D01*
X53550330Y-57124415D01*
X54036511Y-57449271D01*
X54610000Y-57563345D01*
X55183489Y-57449271D01*
X55669670Y-57124415D01*
X55880000Y-56809634D01*
X56090330Y-57124415D01*
X56576511Y-57449271D01*
X57150000Y-57563345D01*
X57723489Y-57449271D01*
X58209670Y-57124415D01*
X58420000Y-56809634D01*
X58630330Y-57124415D01*
X59116511Y-57449271D01*
X59690000Y-57563345D01*
X60263489Y-57449271D01*
X60749670Y-57124415D01*
X60960000Y-56809634D01*
X61170330Y-57124415D01*
X61656511Y-57449271D01*
X62230000Y-57563345D01*
X62803489Y-57449271D01*
X63289670Y-57124415D01*
X63500000Y-56809634D01*
X63710330Y-57124415D01*
X64196511Y-57449271D01*
X64770000Y-57563345D01*
X65343489Y-57449271D01*
X65829670Y-57124415D01*
X66040000Y-56809634D01*
X66250330Y-57124415D01*
X66736511Y-57449271D01*
X67310000Y-57563345D01*
X67883489Y-57449271D01*
X68369670Y-57124415D01*
X68576461Y-56814931D01*
X68947964Y-57230732D01*
X69475209Y-57484709D01*
X69490974Y-57487358D01*
X69723000Y-57366217D01*
X69723000Y-56007000D01*
X69977000Y-56007000D01*
X69977000Y-57366217D01*
X70209026Y-57487358D01*
X70224791Y-57484709D01*
X70752036Y-57230732D01*
X71141954Y-56794320D01*
X71335184Y-56241913D01*
X71190924Y-56007000D01*
X69977000Y-56007000D01*
X69723000Y-56007000D01*
X69703000Y-56007000D01*
X69703000Y-55753000D01*
X69723000Y-55753000D01*
X69723000Y-54393783D01*
X69977000Y-54393783D01*
X69977000Y-55753000D01*
X71190924Y-55753000D01*
X71335184Y-55518087D01*
X71141954Y-54965680D01*
X70752036Y-54529268D01*
X70224791Y-54275291D01*
X70209026Y-54272642D01*
X69977000Y-54393783D01*
X69723000Y-54393783D01*
X69490974Y-54272642D01*
X69475209Y-54275291D01*
X68947964Y-54529268D01*
X68576461Y-54945069D01*
X68369670Y-54635585D01*
X67883489Y-54310729D01*
X67310000Y-54196655D01*
X66736511Y-54310729D01*
X66250330Y-54635585D01*
X66040000Y-54950366D01*
X65829670Y-54635585D01*
X65343489Y-54310729D01*
X64770000Y-54196655D01*
X64196511Y-54310729D01*
X63710330Y-54635585D01*
X63500000Y-54950366D01*
X63289670Y-54635585D01*
X62803489Y-54310729D01*
X62230000Y-54196655D01*
X61656511Y-54310729D01*
X61170330Y-54635585D01*
X60960000Y-54950366D01*
X60749670Y-54635585D01*
X60263489Y-54310729D01*
X59690000Y-54196655D01*
X59116511Y-54310729D01*
X58630330Y-54635585D01*
X58420000Y-54950366D01*
X58209670Y-54635585D01*
X57723489Y-54310729D01*
X57150000Y-54196655D01*
X56576511Y-54310729D01*
X56090330Y-54635585D01*
X55880000Y-54950366D01*
X55669670Y-54635585D01*
X55183489Y-54310729D01*
X54610000Y-54196655D01*
X54036511Y-54310729D01*
X53550330Y-54635585D01*
X53340000Y-54950366D01*
X53129670Y-54635585D01*
X52643489Y-54310729D01*
X52070000Y-54196655D01*
X51496511Y-54310729D01*
X51010330Y-54635585D01*
X50800000Y-54950366D01*
X50589670Y-54635585D01*
X50103489Y-54310729D01*
X49530000Y-54196655D01*
X48956511Y-54310729D01*
X48470330Y-54635585D01*
X48460757Y-54649913D01*
X48456762Y-54628683D01*
X48317690Y-54412559D01*
X48105490Y-54267569D01*
X47853600Y-54216560D01*
X46126400Y-54216560D01*
X45891083Y-54260838D01*
X45674959Y-54399910D01*
X45529969Y-54612110D01*
X45478960Y-54864000D01*
X42274764Y-54864000D01*
X42259162Y-54781083D01*
X42120090Y-54564959D01*
X41907890Y-54419969D01*
X41866561Y-54411600D01*
X41884415Y-54399670D01*
X42209271Y-53913489D01*
X42323345Y-53340000D01*
X42209271Y-52766511D01*
X41884415Y-52280330D01*
X41569634Y-52070000D01*
X41884415Y-51859670D01*
X42209271Y-51373489D01*
X42323345Y-50800000D01*
X42209271Y-50226511D01*
X41884415Y-49740330D01*
X41574931Y-49533539D01*
X41990732Y-49162036D01*
X42244709Y-48634791D01*
X42247358Y-48619026D01*
X42126217Y-48387000D01*
X40767000Y-48387000D01*
X40767000Y-48407000D01*
X40513000Y-48407000D01*
X40513000Y-48387000D01*
X40493000Y-48387000D01*
X40493000Y-48133000D01*
X40513000Y-48133000D01*
X40513000Y-46919076D01*
X40767000Y-46919076D01*
X40767000Y-48133000D01*
X42126217Y-48133000D01*
X42247358Y-47900974D01*
X42244709Y-47885209D01*
X41990732Y-47357964D01*
X41554320Y-46968046D01*
X41001913Y-46774816D01*
X40767000Y-46919076D01*
X40513000Y-46919076D01*
X40278087Y-46774816D01*
X39725680Y-46968046D01*
X39289268Y-47357964D01*
X39039000Y-47877509D01*
X39039000Y-45430213D01*
X41617392Y-45430213D01*
X41686857Y-45672397D01*
X42210302Y-45859144D01*
X42765368Y-45831362D01*
X43149143Y-45672397D01*
X43218608Y-45430213D01*
X42418000Y-44629605D01*
X41617392Y-45430213D01*
X39039000Y-45430213D01*
X39039000Y-44242302D01*
X41008856Y-44242302D01*
X41036638Y-44797368D01*
X41195603Y-45181143D01*
X41437787Y-45250608D01*
X42238395Y-44450000D01*
X42597605Y-44450000D01*
X43398213Y-45250608D01*
X43640397Y-45181143D01*
X43827144Y-44657698D01*
X43799362Y-44102632D01*
X43640397Y-43718857D01*
X43398213Y-43649392D01*
X42597605Y-44450000D01*
X42238395Y-44450000D01*
X41437787Y-43649392D01*
X41195603Y-43718857D01*
X41008856Y-44242302D01*
X39039000Y-44242302D01*
X39039000Y-42186661D01*
X41020758Y-42186661D01*
X41232990Y-42700303D01*
X41625630Y-43093629D01*
X41817727Y-43173395D01*
X41686857Y-43227603D01*
X41617392Y-43469787D01*
X42418000Y-44270395D01*
X43218608Y-43469787D01*
X43149143Y-43227603D01*
X43008682Y-43177491D01*
X43208303Y-43095010D01*
X43601629Y-42702370D01*
X43814757Y-42189100D01*
X43815242Y-41633339D01*
X43603010Y-41119697D01*
X43210370Y-40726371D01*
X43018273Y-40646605D01*
X43149143Y-40592397D01*
X43218608Y-40350213D01*
X42418000Y-39549605D01*
X41617392Y-40350213D01*
X41686857Y-40592397D01*
X41827318Y-40642509D01*
X41627697Y-40724990D01*
X41234371Y-41117630D01*
X41021243Y-41630900D01*
X41020758Y-42186661D01*
X39039000Y-42186661D01*
X39039000Y-39162302D01*
X41008856Y-39162302D01*
X41036638Y-39717368D01*
X41195603Y-40101143D01*
X41437787Y-40170608D01*
X42238395Y-39370000D01*
X42597605Y-39370000D01*
X43398213Y-40170608D01*
X43640397Y-40101143D01*
X43827144Y-39577698D01*
X43799362Y-39022632D01*
X43640397Y-38638857D01*
X43398213Y-38569392D01*
X42597605Y-39370000D01*
X42238395Y-39370000D01*
X41437787Y-38569392D01*
X41195603Y-38638857D01*
X41008856Y-39162302D01*
X39039000Y-39162302D01*
X39039000Y-38389787D01*
X41617392Y-38389787D01*
X42418000Y-39190395D01*
X43218608Y-38389787D01*
X43149143Y-38147603D01*
X42625698Y-37960856D01*
X42070632Y-37988638D01*
X41686857Y-38147603D01*
X41617392Y-38389787D01*
X39039000Y-38389787D01*
X39039000Y-37084000D01*
X44145200Y-37084000D01*
X44145200Y-46228000D01*
X44207071Y-46539045D01*
X44383264Y-46802736D01*
X45669127Y-48088600D01*
X45669015Y-48217269D01*
X45831084Y-48609504D01*
X46130917Y-48909862D01*
X46522869Y-49072615D01*
X46947269Y-49072985D01*
X47339504Y-48910916D01*
X47639862Y-48611083D01*
X47802615Y-48219131D01*
X47802985Y-47794731D01*
X47640916Y-47402496D01*
X47341083Y-47102138D01*
X46949131Y-46939385D01*
X46818744Y-46939271D01*
X45770800Y-45891328D01*
X45770800Y-39644285D01*
X48144760Y-39644285D01*
X48355169Y-40153515D01*
X48744436Y-40543461D01*
X48976870Y-40639976D01*
X48746485Y-40735169D01*
X48356539Y-41124436D01*
X48145241Y-41633298D01*
X48144760Y-42184285D01*
X48355169Y-42693515D01*
X48744436Y-43083461D01*
X48976870Y-43179976D01*
X48746485Y-43275169D01*
X48356539Y-43664436D01*
X48145241Y-44173298D01*
X48144760Y-44724285D01*
X48355169Y-45233515D01*
X48744436Y-45623461D01*
X48976870Y-45719976D01*
X48746485Y-45815169D01*
X48356539Y-46204436D01*
X48145241Y-46713298D01*
X48144760Y-47264285D01*
X48355169Y-47773515D01*
X48744436Y-48163461D01*
X49253298Y-48374759D01*
X49804285Y-48375240D01*
X50313515Y-48164831D01*
X50703461Y-47775564D01*
X50799976Y-47543130D01*
X50895169Y-47773515D01*
X51284436Y-48163461D01*
X51516870Y-48259976D01*
X51286485Y-48355169D01*
X50896539Y-48744436D01*
X50685241Y-49253298D01*
X50684760Y-49804285D01*
X50895169Y-50313515D01*
X51284436Y-50703461D01*
X51793298Y-50914759D01*
X52344285Y-50915240D01*
X52853515Y-50704831D01*
X53243461Y-50315564D01*
X53339976Y-50083130D01*
X53435169Y-50313515D01*
X53824436Y-50703461D01*
X54056870Y-50799976D01*
X53826485Y-50895169D01*
X53436539Y-51284436D01*
X53225241Y-51793298D01*
X53224760Y-52344285D01*
X53435169Y-52853515D01*
X53824436Y-53243461D01*
X54333298Y-53454759D01*
X54884285Y-53455240D01*
X55393515Y-53244831D01*
X55783461Y-52855564D01*
X55879976Y-52623130D01*
X55975169Y-52853515D01*
X56364436Y-53243461D01*
X56873298Y-53454759D01*
X57424285Y-53455240D01*
X57933515Y-53244831D01*
X58323461Y-52855564D01*
X58419976Y-52623130D01*
X58515169Y-52853515D01*
X58904436Y-53243461D01*
X59413298Y-53454759D01*
X59964285Y-53455240D01*
X60473515Y-53244831D01*
X60863461Y-52855564D01*
X60959976Y-52623130D01*
X61055169Y-52853515D01*
X61444436Y-53243461D01*
X61953298Y-53454759D01*
X62504285Y-53455240D01*
X63013515Y-53244831D01*
X63403461Y-52855564D01*
X63499976Y-52623130D01*
X63595169Y-52853515D01*
X63984436Y-53243461D01*
X64493298Y-53454759D01*
X65044285Y-53455240D01*
X65553515Y-53244831D01*
X65943461Y-52855564D01*
X66039976Y-52623130D01*
X66135169Y-52853515D01*
X66524436Y-53243461D01*
X67033298Y-53454759D01*
X67584285Y-53455240D01*
X68093515Y-53244831D01*
X68483461Y-52855564D01*
X68694759Y-52346702D01*
X68695240Y-51795715D01*
X68484831Y-51286485D01*
X68095564Y-50896539D01*
X67586702Y-50685241D01*
X67035715Y-50684760D01*
X66526485Y-50895169D01*
X66136539Y-51284436D01*
X66040024Y-51516870D01*
X65944831Y-51286485D01*
X65555564Y-50896539D01*
X65323130Y-50800024D01*
X65553515Y-50704831D01*
X65943461Y-50315564D01*
X66154759Y-49806702D01*
X66155240Y-49255715D01*
X65944831Y-48746485D01*
X65555564Y-48356539D01*
X65323130Y-48260024D01*
X65553515Y-48164831D01*
X65943461Y-47775564D01*
X66154759Y-47266702D01*
X66155240Y-46715715D01*
X65944831Y-46206485D01*
X65555564Y-45816539D01*
X65323130Y-45720024D01*
X65553515Y-45624831D01*
X65943461Y-45235564D01*
X66154759Y-44726702D01*
X66155240Y-44175715D01*
X65944831Y-43666485D01*
X65555564Y-43276539D01*
X65323130Y-43180024D01*
X65553515Y-43084831D01*
X65943461Y-42695564D01*
X66154759Y-42186702D01*
X66155240Y-41635715D01*
X65944831Y-41126485D01*
X65555564Y-40736539D01*
X65046702Y-40525241D01*
X64495715Y-40524760D01*
X63986485Y-40735169D01*
X63596539Y-41124436D01*
X63500024Y-41356870D01*
X63404831Y-41126485D01*
X63015564Y-40736539D01*
X62783130Y-40640024D01*
X63013515Y-40544831D01*
X63403461Y-40155564D01*
X63614759Y-39646702D01*
X63615240Y-39095715D01*
X63404831Y-38586485D01*
X63015564Y-38196539D01*
X62506702Y-37985241D01*
X61955715Y-37984760D01*
X61446485Y-38195169D01*
X61056539Y-38584436D01*
X60960024Y-38816870D01*
X60864831Y-38586485D01*
X60475564Y-38196539D01*
X59966702Y-37985241D01*
X59415715Y-37984760D01*
X58906485Y-38195169D01*
X58516539Y-38584436D01*
X58420024Y-38816870D01*
X58324831Y-38586485D01*
X57935564Y-38196539D01*
X57426702Y-37985241D01*
X56875715Y-37984760D01*
X56366485Y-38195169D01*
X55976539Y-38584436D01*
X55880024Y-38816870D01*
X55784831Y-38586485D01*
X55395564Y-38196539D01*
X54886702Y-37985241D01*
X54335715Y-37984760D01*
X53826485Y-38195169D01*
X53436539Y-38584436D01*
X53340024Y-38816870D01*
X53244831Y-38586485D01*
X52855564Y-38196539D01*
X52346702Y-37985241D01*
X51795715Y-37984760D01*
X51286485Y-38195169D01*
X50896539Y-38584436D01*
X50800024Y-38816870D01*
X50704831Y-38586485D01*
X50315564Y-38196539D01*
X49806702Y-37985241D01*
X49255715Y-37984760D01*
X48746485Y-38195169D01*
X48356539Y-38584436D01*
X48145241Y-39093298D01*
X48144760Y-39644285D01*
X45770800Y-39644285D01*
X45770800Y-37420672D01*
X46310672Y-36880800D01*
X62550014Y-36880800D01*
X62640917Y-36971862D01*
X63032869Y-37134615D01*
X63457269Y-37134985D01*
X63849504Y-36972916D01*
X64149862Y-36673083D01*
X64312615Y-36281131D01*
X64312985Y-35856731D01*
X64150916Y-35464496D01*
X63851083Y-35164138D01*
X63459131Y-35001385D01*
X63034731Y-35001015D01*
X62642496Y-35163084D01*
X62550219Y-35255200D01*
X45974000Y-35255200D01*
X45662955Y-35317071D01*
X45399264Y-35493264D01*
X44383264Y-36509264D01*
X44207071Y-36772955D01*
X44145200Y-37084000D01*
X39039000Y-37084000D01*
X39039000Y-35942491D01*
X39289268Y-36462036D01*
X39725680Y-36851954D01*
X40278087Y-37045184D01*
X40513000Y-36900924D01*
X40513000Y-35687000D01*
X40767000Y-35687000D01*
X40767000Y-36900924D01*
X41001913Y-37045184D01*
X41554320Y-36851954D01*
X41990732Y-36462036D01*
X42244709Y-35934791D01*
X42247358Y-35919026D01*
X42126217Y-35687000D01*
X40767000Y-35687000D01*
X40513000Y-35687000D01*
X40493000Y-35687000D01*
X40493000Y-35433000D01*
X40513000Y-35433000D01*
X40513000Y-35413000D01*
X40767000Y-35413000D01*
X40767000Y-35433000D01*
X42126217Y-35433000D01*
X42247358Y-35200974D01*
X42244709Y-35185209D01*
X41990732Y-34657964D01*
X41574931Y-34286461D01*
X41884415Y-34079670D01*
X42209271Y-33593489D01*
X42323345Y-33020000D01*
X42209271Y-32446511D01*
X41884415Y-31960330D01*
X41569634Y-31750000D01*
X41884415Y-31539670D01*
X42209271Y-31053489D01*
X42323345Y-30480000D01*
X42209271Y-29906511D01*
X41884415Y-29420330D01*
X41870087Y-29410757D01*
X41891317Y-29406762D01*
X42107441Y-29267690D01*
X42252431Y-29055490D01*
X42303440Y-28803600D01*
X42303440Y-27076400D01*
X42259162Y-26841083D01*
X42120090Y-26624959D01*
X41907890Y-26479969D01*
X41656000Y-26428960D01*
X39624000Y-26428960D01*
X39388683Y-26473238D01*
X39172559Y-26612310D01*
X39039000Y-26807780D01*
X39039000Y-25831000D01*
X56839528Y-25831000D01*
X56575264Y-26095264D01*
X56575264Y-26095264D01*
G37*
X56575264Y-26095264D02*
X56399071Y-26358955D01*
X56369172Y-26509269D01*
X56090330Y-26695585D01*
X55880000Y-27010366D01*
X55669670Y-26695585D01*
X55183489Y-26370729D01*
X54610000Y-26256655D01*
X54036511Y-26370729D01*
X53550330Y-26695585D01*
X53340000Y-27010366D01*
X53129670Y-26695585D01*
X52643489Y-26370729D01*
X52070000Y-26256655D01*
X51496511Y-26370729D01*
X51010330Y-26695585D01*
X50800000Y-27010366D01*
X50589670Y-26695585D01*
X50103489Y-26370729D01*
X49530000Y-26256655D01*
X48956511Y-26370729D01*
X48470330Y-26695585D01*
X48460757Y-26709913D01*
X48456762Y-26688683D01*
X48317690Y-26472559D01*
X48105490Y-26327569D01*
X47853600Y-26276560D01*
X46126400Y-26276560D01*
X45891083Y-26320838D01*
X45674959Y-26459910D01*
X45529969Y-26672110D01*
X45478960Y-26924000D01*
X45478960Y-28956000D01*
X45523238Y-29191317D01*
X45662310Y-29407441D01*
X45874510Y-29552431D01*
X46126400Y-29603440D01*
X47853600Y-29603440D01*
X48088917Y-29559162D01*
X48305041Y-29420090D01*
X48450031Y-29207890D01*
X48458400Y-29166561D01*
X48470330Y-29184415D01*
X48956511Y-29509271D01*
X49530000Y-29623345D01*
X50103489Y-29509271D01*
X50589670Y-29184415D01*
X50800000Y-28869634D01*
X51010330Y-29184415D01*
X51496511Y-29509271D01*
X52070000Y-29623345D01*
X52643489Y-29509271D01*
X53129670Y-29184415D01*
X53340000Y-28869634D01*
X53550330Y-29184415D01*
X54036511Y-29509271D01*
X54610000Y-29623345D01*
X55183489Y-29509271D01*
X55669670Y-29184415D01*
X55880000Y-28869634D01*
X56090330Y-29184415D01*
X56576511Y-29509271D01*
X57150000Y-29623345D01*
X57723489Y-29509271D01*
X58209670Y-29184415D01*
X58420000Y-28869634D01*
X58630330Y-29184415D01*
X59116511Y-29509271D01*
X59690000Y-29623345D01*
X60263489Y-29509271D01*
X60749670Y-29184415D01*
X60960000Y-28869634D01*
X61170330Y-29184415D01*
X61656511Y-29509271D01*
X62230000Y-29623345D01*
X62803489Y-29509271D01*
X63289670Y-29184415D01*
X63500000Y-28869634D01*
X63710330Y-29184415D01*
X64196511Y-29509271D01*
X64770000Y-29623345D01*
X65343489Y-29509271D01*
X65829670Y-29184415D01*
X66040000Y-28869634D01*
X66250330Y-29184415D01*
X66736511Y-29509271D01*
X67310000Y-29623345D01*
X67883489Y-29509271D01*
X68369670Y-29184415D01*
X68576461Y-28874931D01*
X68947964Y-29290732D01*
X69475209Y-29544709D01*
X69490974Y-29547358D01*
X69723000Y-29426217D01*
X69723000Y-28067000D01*
X69977000Y-28067000D01*
X69977000Y-29426217D01*
X70209026Y-29547358D01*
X70224791Y-29544709D01*
X70752036Y-29290732D01*
X71141954Y-28854320D01*
X71335184Y-28301913D01*
X71190924Y-28067000D01*
X69977000Y-28067000D01*
X69723000Y-28067000D01*
X69703000Y-28067000D01*
X69703000Y-27813000D01*
X69723000Y-27813000D01*
X69723000Y-27793000D01*
X69977000Y-27793000D01*
X69977000Y-27813000D01*
X71190924Y-27813000D01*
X71335184Y-27578087D01*
X71141954Y-27025680D01*
X70752036Y-26589268D01*
X70497798Y-26466800D01*
X71545328Y-26466800D01*
X72085200Y-27006672D01*
X72085200Y-29022014D01*
X71994138Y-29112917D01*
X71831385Y-29504869D01*
X71831015Y-29929269D01*
X71993084Y-30321504D01*
X72085200Y-30413781D01*
X72085200Y-35477327D01*
X72053400Y-35509127D01*
X71924731Y-35509015D01*
X71532496Y-35671084D01*
X71232138Y-35970917D01*
X71069385Y-36362869D01*
X71069015Y-36787269D01*
X71231084Y-37179504D01*
X71530917Y-37479862D01*
X71922869Y-37642615D01*
X72347269Y-37642985D01*
X72739504Y-37480916D01*
X73039862Y-37181083D01*
X73202615Y-36789131D01*
X73202729Y-36658744D01*
X73472737Y-36388736D01*
X73648929Y-36125045D01*
X73710800Y-35814000D01*
X73710800Y-30413986D01*
X73801862Y-30323083D01*
X73964615Y-29931131D01*
X73964985Y-29506731D01*
X73802916Y-29114496D01*
X73710800Y-29022219D01*
X73710800Y-26670000D01*
X73648929Y-26358955D01*
X73472736Y-26095264D01*
X73208472Y-25831000D01*
X74245000Y-25831000D01*
X74245000Y-58243000D01*
X39039000Y-58243000D01*
X39039000Y-57007142D01*
X39159910Y-57195041D01*
X39372110Y-57340031D01*
X39624000Y-57391040D01*
X41656000Y-57391040D01*
X41891317Y-57346762D01*
X42107441Y-57207690D01*
X42252431Y-56995490D01*
X42303440Y-56743600D01*
X42303440Y-55016400D01*
X42274764Y-54864000D01*
X45478960Y-54864000D01*
X45478960Y-56896000D01*
X45523238Y-57131317D01*
X45662310Y-57347441D01*
X45874510Y-57492431D01*
X46126400Y-57543440D01*
X47853600Y-57543440D01*
X48088917Y-57499162D01*
X48305041Y-57360090D01*
X48450031Y-57147890D01*
X48458400Y-57106561D01*
X48470330Y-57124415D01*
X48956511Y-57449271D01*
X49530000Y-57563345D01*
X50103489Y-57449271D01*
X50589670Y-57124415D01*
X50800000Y-56809634D01*
X51010330Y-57124415D01*
X51496511Y-57449271D01*
X52070000Y-57563345D01*
X52643489Y-57449271D01*
X53129670Y-57124415D01*
X53340000Y-56809634D01*
X53550330Y-57124415D01*
X54036511Y-57449271D01*
X54610000Y-57563345D01*
X55183489Y-57449271D01*
X55669670Y-57124415D01*
X55880000Y-56809634D01*
X56090330Y-57124415D01*
X56576511Y-57449271D01*
X57150000Y-57563345D01*
X57723489Y-57449271D01*
X58209670Y-57124415D01*
X58420000Y-56809634D01*
X58630330Y-57124415D01*
X59116511Y-57449271D01*
X59690000Y-57563345D01*
X60263489Y-57449271D01*
X60749670Y-57124415D01*
X60960000Y-56809634D01*
X61170330Y-57124415D01*
X61656511Y-57449271D01*
X62230000Y-57563345D01*
X62803489Y-57449271D01*
X63289670Y-57124415D01*
X63500000Y-56809634D01*
X63710330Y-57124415D01*
X64196511Y-57449271D01*
X64770000Y-57563345D01*
X65343489Y-57449271D01*
X65829670Y-57124415D01*
X66040000Y-56809634D01*
X66250330Y-57124415D01*
X66736511Y-57449271D01*
X67310000Y-57563345D01*
X67883489Y-57449271D01*
X68369670Y-57124415D01*
X68576461Y-56814931D01*
X68947964Y-57230732D01*
X69475209Y-57484709D01*
X69490974Y-57487358D01*
X69723000Y-57366217D01*
X69723000Y-56007000D01*
X69977000Y-56007000D01*
X69977000Y-57366217D01*
X70209026Y-57487358D01*
X70224791Y-57484709D01*
X70752036Y-57230732D01*
X71141954Y-56794320D01*
X71335184Y-56241913D01*
X71190924Y-56007000D01*
X69977000Y-56007000D01*
X69723000Y-56007000D01*
X69703000Y-56007000D01*
X69703000Y-55753000D01*
X69723000Y-55753000D01*
X69723000Y-54393783D01*
X69977000Y-54393783D01*
X69977000Y-55753000D01*
X71190924Y-55753000D01*
X71335184Y-55518087D01*
X71141954Y-54965680D01*
X70752036Y-54529268D01*
X70224791Y-54275291D01*
X70209026Y-54272642D01*
X69977000Y-54393783D01*
X69723000Y-54393783D01*
X69490974Y-54272642D01*
X69475209Y-54275291D01*
X68947964Y-54529268D01*
X68576461Y-54945069D01*
X68369670Y-54635585D01*
X67883489Y-54310729D01*
X67310000Y-54196655D01*
X66736511Y-54310729D01*
X66250330Y-54635585D01*
X66040000Y-54950366D01*
X65829670Y-54635585D01*
X65343489Y-54310729D01*
X64770000Y-54196655D01*
X64196511Y-54310729D01*
X63710330Y-54635585D01*
X63500000Y-54950366D01*
X63289670Y-54635585D01*
X62803489Y-54310729D01*
X62230000Y-54196655D01*
X61656511Y-54310729D01*
X61170330Y-54635585D01*
X60960000Y-54950366D01*
X60749670Y-54635585D01*
X60263489Y-54310729D01*
X59690000Y-54196655D01*
X59116511Y-54310729D01*
X58630330Y-54635585D01*
X58420000Y-54950366D01*
X58209670Y-54635585D01*
X57723489Y-54310729D01*
X57150000Y-54196655D01*
X56576511Y-54310729D01*
X56090330Y-54635585D01*
X55880000Y-54950366D01*
X55669670Y-54635585D01*
X55183489Y-54310729D01*
X54610000Y-54196655D01*
X54036511Y-54310729D01*
X53550330Y-54635585D01*
X53340000Y-54950366D01*
X53129670Y-54635585D01*
X52643489Y-54310729D01*
X52070000Y-54196655D01*
X51496511Y-54310729D01*
X51010330Y-54635585D01*
X50800000Y-54950366D01*
X50589670Y-54635585D01*
X50103489Y-54310729D01*
X49530000Y-54196655D01*
X48956511Y-54310729D01*
X48470330Y-54635585D01*
X48460757Y-54649913D01*
X48456762Y-54628683D01*
X48317690Y-54412559D01*
X48105490Y-54267569D01*
X47853600Y-54216560D01*
X46126400Y-54216560D01*
X45891083Y-54260838D01*
X45674959Y-54399910D01*
X45529969Y-54612110D01*
X45478960Y-54864000D01*
X42274764Y-54864000D01*
X42259162Y-54781083D01*
X42120090Y-54564959D01*
X41907890Y-54419969D01*
X41866561Y-54411600D01*
X41884415Y-54399670D01*
X42209271Y-53913489D01*
X42323345Y-53340000D01*
X42209271Y-52766511D01*
X41884415Y-52280330D01*
X41569634Y-52070000D01*
X41884415Y-51859670D01*
X42209271Y-51373489D01*
X42323345Y-50800000D01*
X42209271Y-50226511D01*
X41884415Y-49740330D01*
X41574931Y-49533539D01*
X41990732Y-49162036D01*
X42244709Y-48634791D01*
X42247358Y-48619026D01*
X42126217Y-48387000D01*
X40767000Y-48387000D01*
X40767000Y-48407000D01*
X40513000Y-48407000D01*
X40513000Y-48387000D01*
X40493000Y-48387000D01*
X40493000Y-48133000D01*
X40513000Y-48133000D01*
X40513000Y-46919076D01*
X40767000Y-46919076D01*
X40767000Y-48133000D01*
X42126217Y-48133000D01*
X42247358Y-47900974D01*
X42244709Y-47885209D01*
X41990732Y-47357964D01*
X41554320Y-46968046D01*
X41001913Y-46774816D01*
X40767000Y-46919076D01*
X40513000Y-46919076D01*
X40278087Y-46774816D01*
X39725680Y-46968046D01*
X39289268Y-47357964D01*
X39039000Y-47877509D01*
X39039000Y-45430213D01*
X41617392Y-45430213D01*
X41686857Y-45672397D01*
X42210302Y-45859144D01*
X42765368Y-45831362D01*
X43149143Y-45672397D01*
X43218608Y-45430213D01*
X42418000Y-44629605D01*
X41617392Y-45430213D01*
X39039000Y-45430213D01*
X39039000Y-44242302D01*
X41008856Y-44242302D01*
X41036638Y-44797368D01*
X41195603Y-45181143D01*
X41437787Y-45250608D01*
X42238395Y-44450000D01*
X42597605Y-44450000D01*
X43398213Y-45250608D01*
X43640397Y-45181143D01*
X43827144Y-44657698D01*
X43799362Y-44102632D01*
X43640397Y-43718857D01*
X43398213Y-43649392D01*
X42597605Y-44450000D01*
X42238395Y-44450000D01*
X41437787Y-43649392D01*
X41195603Y-43718857D01*
X41008856Y-44242302D01*
X39039000Y-44242302D01*
X39039000Y-42186661D01*
X41020758Y-42186661D01*
X41232990Y-42700303D01*
X41625630Y-43093629D01*
X41817727Y-43173395D01*
X41686857Y-43227603D01*
X41617392Y-43469787D01*
X42418000Y-44270395D01*
X43218608Y-43469787D01*
X43149143Y-43227603D01*
X43008682Y-43177491D01*
X43208303Y-43095010D01*
X43601629Y-42702370D01*
X43814757Y-42189100D01*
X43815242Y-41633339D01*
X43603010Y-41119697D01*
X43210370Y-40726371D01*
X43018273Y-40646605D01*
X43149143Y-40592397D01*
X43218608Y-40350213D01*
X42418000Y-39549605D01*
X41617392Y-40350213D01*
X41686857Y-40592397D01*
X41827318Y-40642509D01*
X41627697Y-40724990D01*
X41234371Y-41117630D01*
X41021243Y-41630900D01*
X41020758Y-42186661D01*
X39039000Y-42186661D01*
X39039000Y-39162302D01*
X41008856Y-39162302D01*
X41036638Y-39717368D01*
X41195603Y-40101143D01*
X41437787Y-40170608D01*
X42238395Y-39370000D01*
X42597605Y-39370000D01*
X43398213Y-40170608D01*
X43640397Y-40101143D01*
X43827144Y-39577698D01*
X43799362Y-39022632D01*
X43640397Y-38638857D01*
X43398213Y-38569392D01*
X42597605Y-39370000D01*
X42238395Y-39370000D01*
X41437787Y-38569392D01*
X41195603Y-38638857D01*
X41008856Y-39162302D01*
X39039000Y-39162302D01*
X39039000Y-38389787D01*
X41617392Y-38389787D01*
X42418000Y-39190395D01*
X43218608Y-38389787D01*
X43149143Y-38147603D01*
X42625698Y-37960856D01*
X42070632Y-37988638D01*
X41686857Y-38147603D01*
X41617392Y-38389787D01*
X39039000Y-38389787D01*
X39039000Y-37084000D01*
X44145200Y-37084000D01*
X44145200Y-46228000D01*
X44207071Y-46539045D01*
X44383264Y-46802736D01*
X45669127Y-48088600D01*
X45669015Y-48217269D01*
X45831084Y-48609504D01*
X46130917Y-48909862D01*
X46522869Y-49072615D01*
X46947269Y-49072985D01*
X47339504Y-48910916D01*
X47639862Y-48611083D01*
X47802615Y-48219131D01*
X47802985Y-47794731D01*
X47640916Y-47402496D01*
X47341083Y-47102138D01*
X46949131Y-46939385D01*
X46818744Y-46939271D01*
X45770800Y-45891328D01*
X45770800Y-39644285D01*
X48144760Y-39644285D01*
X48355169Y-40153515D01*
X48744436Y-40543461D01*
X48976870Y-40639976D01*
X48746485Y-40735169D01*
X48356539Y-41124436D01*
X48145241Y-41633298D01*
X48144760Y-42184285D01*
X48355169Y-42693515D01*
X48744436Y-43083461D01*
X48976870Y-43179976D01*
X48746485Y-43275169D01*
X48356539Y-43664436D01*
X48145241Y-44173298D01*
X48144760Y-44724285D01*
X48355169Y-45233515D01*
X48744436Y-45623461D01*
X48976870Y-45719976D01*
X48746485Y-45815169D01*
X48356539Y-46204436D01*
X48145241Y-46713298D01*
X48144760Y-47264285D01*
X48355169Y-47773515D01*
X48744436Y-48163461D01*
X49253298Y-48374759D01*
X49804285Y-48375240D01*
X50313515Y-48164831D01*
X50703461Y-47775564D01*
X50799976Y-47543130D01*
X50895169Y-47773515D01*
X51284436Y-48163461D01*
X51516870Y-48259976D01*
X51286485Y-48355169D01*
X50896539Y-48744436D01*
X50685241Y-49253298D01*
X50684760Y-49804285D01*
X50895169Y-50313515D01*
X51284436Y-50703461D01*
X51793298Y-50914759D01*
X52344285Y-50915240D01*
X52853515Y-50704831D01*
X53243461Y-50315564D01*
X53339976Y-50083130D01*
X53435169Y-50313515D01*
X53824436Y-50703461D01*
X54056870Y-50799976D01*
X53826485Y-50895169D01*
X53436539Y-51284436D01*
X53225241Y-51793298D01*
X53224760Y-52344285D01*
X53435169Y-52853515D01*
X53824436Y-53243461D01*
X54333298Y-53454759D01*
X54884285Y-53455240D01*
X55393515Y-53244831D01*
X55783461Y-52855564D01*
X55879976Y-52623130D01*
X55975169Y-52853515D01*
X56364436Y-53243461D01*
X56873298Y-53454759D01*
X57424285Y-53455240D01*
X57933515Y-53244831D01*
X58323461Y-52855564D01*
X58419976Y-52623130D01*
X58515169Y-52853515D01*
X58904436Y-53243461D01*
X59413298Y-53454759D01*
X59964285Y-53455240D01*
X60473515Y-53244831D01*
X60863461Y-52855564D01*
X60959976Y-52623130D01*
X61055169Y-52853515D01*
X61444436Y-53243461D01*
X61953298Y-53454759D01*
X62504285Y-53455240D01*
X63013515Y-53244831D01*
X63403461Y-52855564D01*
X63499976Y-52623130D01*
X63595169Y-52853515D01*
X63984436Y-53243461D01*
X64493298Y-53454759D01*
X65044285Y-53455240D01*
X65553515Y-53244831D01*
X65943461Y-52855564D01*
X66039976Y-52623130D01*
X66135169Y-52853515D01*
X66524436Y-53243461D01*
X67033298Y-53454759D01*
X67584285Y-53455240D01*
X68093515Y-53244831D01*
X68483461Y-52855564D01*
X68694759Y-52346702D01*
X68695240Y-51795715D01*
X68484831Y-51286485D01*
X68095564Y-50896539D01*
X67586702Y-50685241D01*
X67035715Y-50684760D01*
X66526485Y-50895169D01*
X66136539Y-51284436D01*
X66040024Y-51516870D01*
X65944831Y-51286485D01*
X65555564Y-50896539D01*
X65323130Y-50800024D01*
X65553515Y-50704831D01*
X65943461Y-50315564D01*
X66154759Y-49806702D01*
X66155240Y-49255715D01*
X65944831Y-48746485D01*
X65555564Y-48356539D01*
X65323130Y-48260024D01*
X65553515Y-48164831D01*
X65943461Y-47775564D01*
X66154759Y-47266702D01*
X66155240Y-46715715D01*
X65944831Y-46206485D01*
X65555564Y-45816539D01*
X65323130Y-45720024D01*
X65553515Y-45624831D01*
X65943461Y-45235564D01*
X66154759Y-44726702D01*
X66155240Y-44175715D01*
X65944831Y-43666485D01*
X65555564Y-43276539D01*
X65323130Y-43180024D01*
X65553515Y-43084831D01*
X65943461Y-42695564D01*
X66154759Y-42186702D01*
X66155240Y-41635715D01*
X65944831Y-41126485D01*
X65555564Y-40736539D01*
X65046702Y-40525241D01*
X64495715Y-40524760D01*
X63986485Y-40735169D01*
X63596539Y-41124436D01*
X63500024Y-41356870D01*
X63404831Y-41126485D01*
X63015564Y-40736539D01*
X62783130Y-40640024D01*
X63013515Y-40544831D01*
X63403461Y-40155564D01*
X63614759Y-39646702D01*
X63615240Y-39095715D01*
X63404831Y-38586485D01*
X63015564Y-38196539D01*
X62506702Y-37985241D01*
X61955715Y-37984760D01*
X61446485Y-38195169D01*
X61056539Y-38584436D01*
X60960024Y-38816870D01*
X60864831Y-38586485D01*
X60475564Y-38196539D01*
X59966702Y-37985241D01*
X59415715Y-37984760D01*
X58906485Y-38195169D01*
X58516539Y-38584436D01*
X58420024Y-38816870D01*
X58324831Y-38586485D01*
X57935564Y-38196539D01*
X57426702Y-37985241D01*
X56875715Y-37984760D01*
X56366485Y-38195169D01*
X55976539Y-38584436D01*
X55880024Y-38816870D01*
X55784831Y-38586485D01*
X55395564Y-38196539D01*
X54886702Y-37985241D01*
X54335715Y-37984760D01*
X53826485Y-38195169D01*
X53436539Y-38584436D01*
X53340024Y-38816870D01*
X53244831Y-38586485D01*
X52855564Y-38196539D01*
X52346702Y-37985241D01*
X51795715Y-37984760D01*
X51286485Y-38195169D01*
X50896539Y-38584436D01*
X50800024Y-38816870D01*
X50704831Y-38586485D01*
X50315564Y-38196539D01*
X49806702Y-37985241D01*
X49255715Y-37984760D01*
X48746485Y-38195169D01*
X48356539Y-38584436D01*
X48145241Y-39093298D01*
X48144760Y-39644285D01*
X45770800Y-39644285D01*
X45770800Y-37420672D01*
X46310672Y-36880800D01*
X62550014Y-36880800D01*
X62640917Y-36971862D01*
X63032869Y-37134615D01*
X63457269Y-37134985D01*
X63849504Y-36972916D01*
X64149862Y-36673083D01*
X64312615Y-36281131D01*
X64312985Y-35856731D01*
X64150916Y-35464496D01*
X63851083Y-35164138D01*
X63459131Y-35001385D01*
X63034731Y-35001015D01*
X62642496Y-35163084D01*
X62550219Y-35255200D01*
X45974000Y-35255200D01*
X45662955Y-35317071D01*
X45399264Y-35493264D01*
X44383264Y-36509264D01*
X44207071Y-36772955D01*
X44145200Y-37084000D01*
X39039000Y-37084000D01*
X39039000Y-35942491D01*
X39289268Y-36462036D01*
X39725680Y-36851954D01*
X40278087Y-37045184D01*
X40513000Y-36900924D01*
X40513000Y-35687000D01*
X40767000Y-35687000D01*
X40767000Y-36900924D01*
X41001913Y-37045184D01*
X41554320Y-36851954D01*
X41990732Y-36462036D01*
X42244709Y-35934791D01*
X42247358Y-35919026D01*
X42126217Y-35687000D01*
X40767000Y-35687000D01*
X40513000Y-35687000D01*
X40493000Y-35687000D01*
X40493000Y-35433000D01*
X40513000Y-35433000D01*
X40513000Y-35413000D01*
X40767000Y-35413000D01*
X40767000Y-35433000D01*
X42126217Y-35433000D01*
X42247358Y-35200974D01*
X42244709Y-35185209D01*
X41990732Y-34657964D01*
X41574931Y-34286461D01*
X41884415Y-34079670D01*
X42209271Y-33593489D01*
X42323345Y-33020000D01*
X42209271Y-32446511D01*
X41884415Y-31960330D01*
X41569634Y-31750000D01*
X41884415Y-31539670D01*
X42209271Y-31053489D01*
X42323345Y-30480000D01*
X42209271Y-29906511D01*
X41884415Y-29420330D01*
X41870087Y-29410757D01*
X41891317Y-29406762D01*
X42107441Y-29267690D01*
X42252431Y-29055490D01*
X42303440Y-28803600D01*
X42303440Y-27076400D01*
X42259162Y-26841083D01*
X42120090Y-26624959D01*
X41907890Y-26479969D01*
X41656000Y-26428960D01*
X39624000Y-26428960D01*
X39388683Y-26473238D01*
X39172559Y-26612310D01*
X39039000Y-26807780D01*
X39039000Y-25831000D01*
X56839528Y-25831000D01*
X56575264Y-26095264D01*
M02*
