M48
INCH,TZ
T1C0.018
T2C0.024
T3C0.031
T4C0.040
%
G90
G05
T1
X18400Y-18900
X24900Y-14200
X28400Y-14400
X28700Y-11700
T2
X19500Y-15500
X19500Y-16500
X19500Y-17500
X19500Y-18500
X20500Y-15500
X20500Y-16500
X20500Y-17500
X20500Y-18500
X20500Y-19500
X21500Y-15500
X21500Y-16500
X21500Y-17500
X21500Y-18500
X21500Y-19500
X21500Y-20500
X22500Y-15500
X22500Y-16500
X22500Y-17500
X22500Y-18500
X22500Y-19500
X22500Y-20500
X23500Y-15500
X23500Y-16500
X23500Y-17500
X23500Y-18500
X23500Y-19500
X23500Y-20500
X24500Y-15500
X24500Y-16500
X24500Y-17500
X24500Y-18500
X24500Y-19500
X24500Y-20500
X25500Y-16500
X25500Y-17500
X25500Y-18500
X25500Y-19500
X25500Y-20500
X26500Y-20500
T3
X16700Y-15500
X16700Y-16500
X16700Y-17500
T4
X16000Y-11000
X16000Y-12000
X16000Y-13000
X16000Y-14000
X16000Y-19000
X16000Y-20000
X16000Y-21000
X16000Y-22000
X18500Y-11000
X18500Y-22000
X19500Y-11000
X19500Y-22000
X20500Y-11000
X20500Y-22000
X21500Y-11000
X21500Y-22000
X22500Y-11000
X22500Y-22000
X23500Y-11000
X23500Y-22000
X24500Y-11000
X24500Y-22000
X25500Y-11000
X25500Y-22000
X26500Y-11000
X26500Y-22000
X27500Y-11000
X27500Y-22000
T0
M30
